<svg xmlns="http://www.w3.org/2000/svg" viewBox="0 0 100 100">
<!-- SVG created with Arrow, by QuiverAI (https://quiver.ai) -->
  <style type="text/css">.cls-0 {fill:#000;}
.cls-1 {fill:#000;}
.cls-2 {fill:none;stroke:#000;stroke-width:1.3;stroke-linecap:round;stroke-linejoin:round;stroke-miterlimit:10;}
.cls-3 {fill:none;stroke:#000;stroke-width:1.3;stroke-linecap:round;stroke-linejoin:round;stroke-miterlimit:10;}
.cls-4 {fill:#000;stroke:#000;stroke-width:0.5;stroke-linecap:round;stroke-linejoin:round;stroke-miterlimit:10;}
.cls-5 {fill:#000;stroke:#000;stroke-width:0.9688;stroke-linecap:round;stroke-linejoin:round;stroke-miterlimit:10;}
.cls-6 {fill:#000;stroke:#000;stroke-width:0.5813;stroke-linecap:round;stroke-linejoin:round;stroke-miterlimit:10;}
.cls-7 {fill:#000;}
.cls-8 {fill:none;stroke:#000;stroke-width:1.5;stroke-linecap:round;stroke-linejoin:round;stroke-miterlimit:10;}</style>
  <path class="cls-1" d="m81.3 30.4c-4.4-5.5-13.4-12.4-22.4-14.6-2.1-0.5-4.8-1.2-6.2-1.4-0.7 0-1.7 0.7-1.7 0.7 0.2-0.8 5.5-9.4 8.9-13.3 0.3-0.3 0.6-0.8 0.1-1-0.9-0.4-6.7-0.1-11.6 3.2-4.8 3-10.9 10.3-13.1 13.6l-0.3 1.7c-3.7 0.3-6.8 3.2-8.3 6.1-1 2.1-2.5 3.3-5 3.5l-7.4-0.1 0.2 1.6c0.9 2.7 3.5 3.7 6 3.6l25.4-1 15.7-0.1c8.2 0.2 15.2-0.1 19 4.3 1.5 1.7 2.2 4 2.1 5.5 0 0-0.3-2.1-3.3-4.3-2.2-1.5-5-2.8-9.4-3.1-3.1-0.3-7.7-0.4-7.7-0.4l-15.5-0.6-0.2 0.3 15.1 0.4c7.1 0.2 12.9 0 16.9 3.1l2.3 2.1s1.7 2.5 1.5 5.3c-9.9 0-12.9 8.9-12.9 10.4l5-0.8c3.1-0.2 7.1-0.5 8.4-2.1l1.3-1 1.5 1.3c1.7 1.2 3.5 1.2 5.5 1.5l7.3 0.7c0-4.1-4.7-8.9-10.3-9.5l-0.5-0.1c-0.6-2.7-3.5-11.3-6.4-15.5z"/>
  <path class="cls-0" d="m84 64.2-54.7-0.6c-8.6-0.2-11.9-6.9-12.7-12 5.1-0.2 11.6-4.7 11.8-10.7l-7.9 0.2c-2.4 0-4.9 1.5-5.9 3.4-1.9-2.3-4-3.8-6.8-3.8l-6 0.3c0.5 5.1 5.8 10.2 9.8 10.6 2.5 7.9 5 16.6 16.5 24.8 5.3 3.8 12.3 7.2 17.5 8.5l0.3 0.2-8.2 13.5c6.2 0.8 12.3-4.5 12.3-4.5l12.6-13c3.1 0 10.9-2 12.5-8.5 1.3-2.7 3.8-3.3 6.5-3.3l7 0.1c0.1-2.5-1.9-4.8-4.6-5.2z"/>
  <path class="cls-4" d="m15.3 44.4c-1.2 1.7-1.4-1.3-6.1-1.8l-7.2-0.7c0.3 4 5.1 8.8 9.7 9.2l0.2 0.1c0.5 0.2 1.7 6.7 4 10.4l-0.6-17.2z"/>
  <path class="cls-5" d="m36.3 23.6c-0.8 0-1.5 0.8-1.5 1.6s0.8 1.7 1.6 1.7c1 0 1.6-0.7 1.6-1.7 0-0.8-0.7-1.6-1.7-1.6z"/>
  <path class="cls-6" d="m63.6 73.1c-0.8 0-1.5 0.7-1.5 1.5s0.7 1.6 1.5 1.6 1.5-0.8 1.5-1.6c0.1-0.8-0.7-1.5-1.5-1.5z"/>
  <path class="cls-8" d="m40 10.6c-3.8 0.5-7.4 1.3-11.4 3.2-4.1 1.8-7.2 4.3-9.4 6.4-3.1 3.4-4.4 5.9-5 8-0.6 2.7 1 5.7 5.4 6l20.6 0.3"/>
  <path class="cls-3" d="m34.7 15.6c-3.6 0.9-10.5 3.3-14.7 11.1"/>
  <path class="cls-2" d="m15.6 44c1-1.9 3.4-3.3 5.9-3.3h6.9c0 4.8-4.5 10-11.8 10.9 0.6 5.1 3.9 11.8 12.2 12.1l22.6 0.4"/>
  <path class="cls-8" d="m15.7 63.4c-1.7-3.5-3.3-8.5-4.1-11.8-5.3-0.7-9.8-5.5-9.8-11 2.1 0 5.3-0.1 7.4 0 2.5 0.1 4.5 1.3 5.4 3.9"/>
  <path class="cls-8" d="m41.6 88.7c-2.9-1-5.2-2-7.9-3.6-5.1-3-10.6-7.7-14.9-14.3"/>
  <path class="cls-8" d="m53.2 91.2c4.4 0.4 8.7 0.2 13.7-1 8.3-1.8 16.7-7.6 20.2-15 0.6-1.6 1.5-3.6 1.5-5.8 0-2.8-1.9-4.7-4.6-5.2l-25.2-0.1"/>
  <path class="cls-0" d="m65.4 89.5c8-1.1 20.2-7.6 22.2-19.5h-0.2c-1 5.1-7.2 16.1-22 19.5z"/>
  <path class="cls-8" d="m81.8 71.4c-1.3 4.5-5.1 9.2-9.8 11.7-2.9 1.6-7 3-12.3 3.4"/>
  <path class="cls-2" d="m45.5 84.9c-2.4-0.2-9.3-2.5-14.6-5.8-5.2-3.4-11.3-9-15-16.5"/>
  <path class="cls-8" d="m47.4 81.9c-1.7 3.7-6.2 11.8-9.8 16.7 5.8 0.3 10-2.7 13.4-5.5 3.4-3.2 9.5-8.5 11.6-12"/>
  <path class="cls-2" d="m46.8 34.5h14.9c7.9 0.2 12.4 0.4 15.2 2.1 3.2 1.6 5.7 4.6 5.5 9-6.9 0-12.2 4.8-13 10.4 8.5-0.1 12.5 0.4 14.8-4 1.5 3.4 3.7 3.6 6.5 3.7 2.5 0.2 5.5 0.3 7.8 0.4-0.1-4.9-4.9-9.4-10.3-10.2h-0.1-0.5c-0.4-2.5-2-6.8-2.9-8.4-3.3-6.8-8.3-11.9-15.1-16.1-4.5-2.8-9.4-4.8-16.9-6.5"/>
  <path class="cls-8" d="m55.1 11.4c6.8 1.5 14.5 4.2 23 13.3"/>
  <path class="cls-2" d="m35.2 19.4c-3 0.2-6.5 2.2-8.5 5.8-1.5 3.2-3.6 3.5-5.6 3.5h-6.9c0.5-2.6 2.4-5.5 4.4-7.7 2.9-3.1 7-5.8 10-7.1"/>
  <path class="cls-3" d="m35.2 19.1c0.8-1.7 6.4-8.5 10.5-12 4-3.5 8.5-5.7 14-5.7-1.8 2-8.5 12.2-9.5 14.5"/>
  <path class="cls-7" d="m43.4 33.5c-0.4 0-0.9 0.4-0.9 1 0 0.4 0.4 0.9 0.9 0.9s0.8-0.5 0.8-0.9c0-0.6-0.3-1-0.8-1z"/>
  <path class="cls-7" d="m54.7 63.2c-0.5 0.2-0.8 0.7-0.6 1.2 0.1 0.5 0.6 0.7 1.1 0.6 0.4-0.1 0.7-0.6 0.4-1.1-0.2-0.5-0.5-0.7-0.9-0.7z"/>
  <path class="cls-7" d="m16.6 66.2c-0.4 0.2-0.7 0.7-0.4 1.4 0.2 0.5 0.7 0.5 1.2 0.3 0.3-0.3 0.6-0.8 0.3-1.3-0.3-0.4-0.7-0.5-1.1-0.4z"/>
  <path class="cls-7" d="m80.4 27.2c-0.4 0.2-0.8 0.7-0.5 1.2 0.1 0.5 0.7 0.5 1.2 0.3 0.3-0.1 0.5-0.7 0.3-1.1s-0.7-0.5-1-0.4z"/>
</svg>
