<svg version="1.2" xmlns="http://www.w3.org/2000/svg" viewBox="0 0 717 717" width="32" height="32">
	<style>
		.s0 { fill: #f8af40 } 
		.s1 { fill: #fdfdfd } 
		.s2 { fill: #c68b32 } 
		.s3 { fill: #faaf42 } 
		.s4 { fill: #fdfdfb } 
		.s5 { fill: #fdfdfc } 
		.s6 { fill: #fdfbf9 } 
		.s7 { fill: #c88e38 } 
		.s8 { fill: #d29a46 } 
	</style>
	<path class="s0" d="m0 0c236.61 0 473.22 0 717 0 0 236.61 0 473.22 0 717-236.61 0-473.22 0-717 0 0-236.61 0-473.22 0-717z"/>
	<path class="s1" d="m0 0c236.61 0 473.22 0 717 0 0 236.61 0 473.22 0 717-236.61 0-473.22 0-717 0 0-236.61 0-473.22 0-717zm289.88 18.19q-1.13 0.23-2.29 0.46c-39.31 8.02-77.68 22.7-111.59 44.35q-1.57 1-3.2 2.04-4.44 2.92-8.8 5.96-1.62 1.11-3.29 2.26c-12.14 8.46-23.66 17.76-34.57 27.78-1.95 1.78-3.94 3.5-5.95 5.21-8.71 7.62-16.78 15.89-23.96 24.96-1.98 2.48-4.03 4.88-6.11 7.27-43.89 50.67-68.72 115.64-77.12 181.52q-0.18 1.29-0.36 2.63c-5.82 43.24-2.19 91.75 11.64 133.18q1.24 3.8 2.42 7.63c13.94 43.93 36.28 82.91 65.3 118.56q0.65 0.81 1.32 1.64c12.29 15.14 26.19 29.49 41.68 41.36q1.68 1.36 3.36 2.73c28.05 22.91 58.89 41.96 92.64 55.27q1.19 0.47 2.42 0.96c18.22 7.17 36.7 12.04 55.89 15.79q1.13 0.22 2.3 0.45 3.34 0.65 6.69 1.28c1.94 0.37 1.94 0.37 3.91 0.75 12.15 2.05 24.06 3.09 36.39 3.11q2.18 0.01 4.36 0.02 4.54 0.01 9.08 0.01 4.55 0 9.1 0.04c37.84 0.34 75.07-4.5 110.86-17.41q1.58-0.57 3.22-1.16c34.45-12.61 67.28-29.58 95.78-52.84q1.08-0.87 2.2-1.77c7.72-6.24 15.35-12.57 22.67-19.28q3.12-2.83 6.32-5.58c6.48-5.66 12.22-11.84 17.81-18.37 1.19-1.35 1.19-1.35 2.39-2.73 34.97-40.17 57.32-87.64 72.61-138.27 0.37-1.21 0.37-1.21 0.75-2.44 3.22-10.65 5.22-21.47 7-32.44 0.32-1.94 0.32-1.94 0.64-3.92 13.34-85.53-9.68-180.24-60.26-250.18-5.79-7.91-11.91-15.44-18.36-22.81-2.36-2.71-4.57-5.5-6.77-8.34-9.75-12-21.23-23.41-33.46-32.89-2.42-1.89-4.74-3.87-7.05-5.89-46.79-40.64-107.65-65.1-168.49-74.09q-1.6-0.27-3.25-0.54c-14.14-2.04-28.41-1.76-42.67-1.72q-5.64 0.01-11.28-0.01c-21.12-0.05-41.2 1.22-61.92 5.46z"/>
	<path class="s2" d="m392 171q0.52 0.62 1.06 1.25c2.16 1.95 4.51 3.19 7.05 4.59 3.28 2.01 6.03 4.6 8.89 7.16q2.8 2.36 5.62 4.7c1.38 1.3 1.38 1.3 2.38 3.3q1.26 0.74 2.56 1.5 1.2 0.74 2.44 1.5 0 0.99 0 2 1.48 0 3 0c0.5 0.99 0.5 0.99 1 2q2.47 1.36 4.95 2.72c3.09 1.93 5.68 4.34 8.35 6.79 1.64 1.57 1.64 1.57 3.7 2.49q0 0.99 0 2 0.95 0.43 1.94 0.87c2.06 1.13 2.06 1.13 3.06 3.13q1.23 0.74 2.5 1.5c2.5 1.5 2.5 1.5 3.5 3.5q1.42 0.77 2.87 1.56c5.59 3.08 10.26 7.36 15.13 11.44q4.39 3.53 8.79 7.05c2.21 1.95 2.21 1.95 4.21 4.95q1.29 0.77 2.62 1.56 1.17 0.71 2.38 1.44 0 0.99 0 2 1.48 0 3 0c1.46 1.33 1.46 1.33 3 3q1.8 1.4 3.65 2.74 1.04 0.76 2.11 1.55 2.17 1.58 4.35 3.15c3.92 2.89 6.94 5.63 9.89 9.56q2.48 1.53 5 3 0 0.99 0 2 1.48 0 3 0c1.4 1.28 1.4 1.28 3 3q3.44 2.68 6.94 5.28c2.06 1.72 2.06 1.72 4.06 4.72q1.45 0.71 2.94 1.44c3.17 1.62 4.04 2.75 6.06 5.56q2.47 1.55 5 3c0.65 0.67 0.65 0.67 1.31 1.34 3.02 2.97 6.63 5.21 10.1 7.62 2.39 1.89 3.82 3.61 5.59 6.04q2.52 1.47 5.09 2.86c3.84 2.29 7.19 5.36 10.28 8.56 1.67 1.62 3.4 2.96 5.28 4.32q1.04 0.76 2.11 1.55 2.17 1.58 4.35 3.15c3.92 2.89 6.92 5.65 9.89 9.56q2.99 1.53 6 3 2.51 2.49 5 5 3.03 2.42 6.13 4.75 1.71 1.3 3.42 2.61 0.86 0.65 1.74 1.33 4.01 3.08 7.96 6.25c1.34 1.06 1.34 1.06 2.7 2.15 2.05 1.91 2.05 1.91 3.05 4.91q1.48 0 3 0c1.67 1.01 1.67 1.01 3 3 0.28 2.72 0.38 5.16 0.31 7.87q-0.01 1.15-0.03 2.33c-0.16 6.73-0.99 13.19-2.28 19.8-0.21 1.11-0.21 1.11-0.42 2.25q-1.46 7.7-3.08 15.37-0.65 3.09-1.26 6.2c-10.06 45.43-36.19 89.85-67.81 123.56-1.95 2.1-3.8 4.22-5.62 6.43-2.58 3.06-5.46 5.61-8.51 8.2-2.65 2.3-5.18 4.71-7.74 7.11-28.33 26.24-63.47 45.56-99.87 57.94-1.73 0.59-1.73 0.59-3.49 1.2-10.91 3.59-10.91 3.59-16.2 2.74-2.63-1.58-2.63-1.58-5.12-3.81-1.41-1.23-1.41-1.23-2.85-2.48q-0.73-0.66-1.49-1.34c-2.68-2.38-5.42-4.68-8.16-7-0.84-0.7-0.84-0.7-1.69-1.43-3.62-3.06-7.3-6-11.07-8.88-3.66-2.87-7.23-5.84-10.81-8.81-5.34-4.42-10.72-8.79-16.18-13.06q-6.48-5.05-12.88-10.19-1.3-1.05-2.64-2.13c-2.11-1.87-2.11-1.87-4.11-4.87q0.99-0.16 2.01-0.33c8.22-1.41 8.22-1.41 14.52-6.56 2.22-4.71 2.51-9.47 3.05-14.61q0.2-1.74 0.4-3.53 0.65-5.76 1.27-11.53 0.45-4.02 0.9-8.04 0.71-6.27 1.41-12.54 1.65-14.83 3.42-29.66 0.24-2.05 0.48-4.09 0.93-7.88 1.87-15.76 0.65-5.43 1.29-10.87 0.19-1.66 0.39-3.38c0.81-7.09 1.41-14.15 1.69-21.29 0.32-2.96 0.96-5.15 2.3-7.81q2.45-1.58 5-3c3.82-2.88 3.82-2.88 5.35-7.25 0.07-4.53 0.07-4.53-1.35-8.75-2.13-0.47-2.13-0.47-4.56-0.63q-1.24-0.11-2.51-0.22c-0.95-0.08-0.95-0.08-1.93-0.15q0.69-4.73 1.45-9.46 0.51-3.23 0.85-6.49c0.32-2.57 0.63-4.68 1.7-7.05 2-1.26 3.98-1.99 6.19-2.81 2.04-1.06 2.04-1.06 2.5-3.5q0.15-1.33 0.31-2.69c0.32-2.67 0.32-2.67 1-5 1.9-1.48 3.73-2.22 5.96-3.11 3.59-1.57 5.09-3.54 7.04-6.89 0.6-4.85 0.55-9.35-1-14-2-1.69-2-1.69-4-3q0.99-0.99 2-2c1.29-3.53 1.1-7.03 1.06-10.75q-0.01-1.75-0.02-3.55-0.02-1.33-0.04-2.7-1 0-2.03 0.01-10.49 0.03-20.97-0.05-3.91-0.02-7.82 0-5.64 0.01-11.27-0.06-1.73 0.02-3.5 0.05c-9.83-0.18-14.43-3.88-21.1-10.7-6.37-8.96-10.92-19.2-15.31-29.25q-0.55-1.22-1.11-2.48c-4.25-11.35-3.55-24.67 1.13-35.66q1.83-3.98 3.72-7.93c4.47-9.43 6.43-19.71 8.26-29.93 9.53 5.81 14.57 12.25 18 23 2.69 12.78 1.09 25.72-3 38 9.02-2.33 14.48-6.5 20-14 1.15 17.69-5.45 34.51-11 51 16.1-13.48 28.31-31.32 33-52q0.26-1.09 0.53-2.21c1.7-7.99 1.84-15.94 1.84-24.07q0.01-3.48 0.08-6.97c0.11-14.76-1.94-29.28-10.45-41.75q-0.99-0.99-2-2 0-1.97 0-4z"/>
	<path class="s3" d="m339.77 12.76q1.03 0 2.1-0.01 5.5-0.03 11.01-0.05 4.45-0.01 8.89-0.06c25.65-0.27 50.65 1.4 75.67 7.67q1.84 0.45 3.73 0.91c25.27 6.26 49.9 14.54 72.94 26.78q2.97 1.56 5.97 3.07c20.38 10.42 39.44 23.17 56.92 37.93q1.61 1.35 3.22 2.69c14.82 12.42 29.56 25.28 41.56 40.53 2.08 2.61 4.24 5.11 6.45 7.61 12.23 13.94 22.46 29.17 31.77 45.17q0.66 1.13 1.35 2.29c30.19 51.36 45.18 113.61 44.91 172.94q-0.01 4.15 0.01 8.31c0.02 16.37-1.09 32.71-4.02 48.84q-0.26 1.42-0.52 2.88c-11.25 59.99-38.39 118.85-78.73 164.74q-0.91 1.06-1.85 2.15-2.55 2.95-5.15 5.85-1.17 1.33-2.38 2.7c-10.13 11.36-21.19 21.43-33.26 30.69-3.17 2.43-6.2 5.01-9.23 7.61-57.64 48.26-135.03 71.99-209.34 71.52q-5.53-0.03-11.06 0.02c-18.93 0.09-37.04-1.19-55.73-4.54q-1.16-0.2-2.36-0.41-6-1.07-11.95-2.4-1.72-0.38-3.48-0.77c-53.22-12.06-101.73-38.27-143.21-73.42q-1.55-1.27-3.11-2.55c-14.21-11.76-27.62-24.82-38.89-39.45q-1.35-1.65-2.7-3.29c-12.05-14.66-22.96-30.19-32.3-46.71-0.68-1.19-0.68-1.19-1.38-2.41-11.98-20.98-21.12-42.64-28.62-65.59q-0.33-1-0.66-2.02-1.77-5.46-3.34-10.98-0.47-1.58-0.95-3.2c-22.38-79.01-12.1-167.54 23.95-240.8q0.71-1.44 1.43-2.93c10.45-21.12 22.82-40.7 37.57-59.07q1.18-1.48 2.39-3 3.27-4.03 6.61-8 0.63-0.77 1.29-1.56c10.64-12.9 22.12-25.17 35.29-35.51 2.3-1.83 4.45-3.75 6.61-5.74 11-9.86 23.38-18.25 35.81-26.19 1.65-1.05 1.65-1.05 3.32-2.13 20.07-12.56 41.47-22.75 63.68-30.87 1.35-0.5 1.35-0.5 2.72-1 18.73-6.81 38.04-11.12 57.59-14.81q1.63-0.31 3.31-0.63 1.56-0.29 3.18-0.58c1.36-0.25 1.36-0.25 2.76-0.5 10.05-1.4 20.08-1.66 30.21-1.72zm-38.77 33.24q-1.81 0.35-3.68 0.72c-28 5.6-54.75 14.54-80.32 27.28-1.27 0.63-1.27 0.63-2.56 1.27-24.91 12.38-47.72 28.2-68.44 46.73q-0.77 0.68-1.56 1.38c-8.03 7.07-15.31 14.66-22.44 22.62q-0.93 1.02-1.89 2.07c-15.89 17.75-29.3 37.28-41.11 57.93q-0.61 1.06-1.24 2.15c-7.07 12.45-12.53 25.54-17.76 38.85q-0.45 1.14-0.91 2.31c-9.71 25.05-14.87 51.23-17.78 77.84q-0.28 2.58-0.6 5.15c-3.37 28.15-0.85 56.97 4.29 84.7q0.26 1.5 0.53 3.05c4.62 25.88 14.22 52.26 25.47 75.95q0.5 1.06 1.01 2.15 3.35 7 6.99 13.85 0.51 0.97 1.05 1.98c14.55 27.29 35.32 55.49 59.13 75.45 1.82 1.57 3.47 3.22 5.13 4.94 4.56 4.62 9.6 8.62 14.69 12.63 0.91 0.72 0.91 0.72 1.84 1.46 16.64 13.2 34.3 24.77 53.16 34.54q1.27 0.66 2.57 1.33c70.97 36.4 159.27 43.53 235.43 19.67 35.28-11.65 70.3-28.13 99.33-51.64q2.79-2.26 5.6-4.49c14.07-11.24 27.34-23.17 39.07-36.87q1.34-1.53 2.68-3.05c7.57-8.66 14.62-17.61 21.32-26.95q0.63-0.87 1.27-1.77c25.57-35.9 43.17-79.53 50.86-122.98 0.23-1.23 0.23-1.23 0.47-2.49 2.93-16.23 3.78-32.43 3.71-48.89q0-1.41 0-2.87c-0.09-26.48-2.29-52.15-8.31-78q-0.29-1.29-0.59-2.62c-4.78-21.33-11.94-41.69-21.41-61.38q-0.49-1.05-1-2.12c-9.86-20.93-22.59-39.89-37.69-57.35-2.03-2.37-3.98-4.79-5.93-7.22-10.43-12.76-21.73-24.91-34.66-35.15-2.82-2.24-5.55-4.57-8.28-6.91-26.56-22.09-56.53-39.02-88.77-51.24q-3.26-1.23-6.49-2.53c-17.87-6.89-37.31-10.28-56.2-13.04q-3.04-0.45-6.06-0.98c-13.06-2.09-26.22-1.86-39.42-1.83q-1.9 0-3.85 0c-19.2 0.04-37.78 0.61-56.65 4.37z"/>
	<path class="s4" d="m361 41.56c1.82-0.01 1.82-0.01 3.68-0.02 20.4-0.06 40.15 1.66 60.13 5.83q1.56 0.32 3.16 0.65c9.14 1.93 18.12 4.17 27.03 6.98q1.29 0.41 2.61 0.82c42.12 13.49 79.82 36.38 112.76 65.73q2.16 1.92 4.33 3.81c9.74 8.6 19 17.65 27.07 27.85 1.99 2.5 4.06 4.91 6.16 7.32 28.7 33.1 47.89 74.23 58.34 116.51q0.71 2.87 1.43 5.73c3.8 14.94 5.93 29.88 7.3 45.23q0.14 1.55 0.29 3.14c0.89 10.74 0.95 21.47 0.96 32.23 0 1.47 0 1.47 0 2.96-0.01 13.79-0.34 27.32-2.76 40.93-0.53 2.95-0.99 5.9-1.45 8.86-2.91 17.56-8.22 34.11-14.04 50.88q-0.43 1.25-0.86 2.54c-12.42 36.36-33.05 68.61-58.14 97.46q-0.91 1.06-1.86 2.16c-10.9 12.61-22.1 24.42-35.14 34.84q-1.7 1.41-3.41 2.82c-15.11 12.44-31.5 22.67-48.59 32.18q-1.08 0.6-2.18 1.22c-10.95 6.1-22.17 11.19-33.82 15.78q-1.25 0.5-2.53 1.01c-20.62 8.16-41.93 13.31-63.78 16.86q-1.86 0.31-3.77 0.62c-14.21 2.19-28.38 2.72-42.73 2.7-1.14 0-1.14 0-2.3 0-47.17-0.11-94.39-9.16-136.89-30.19q-1.38-0.68-2.81-1.39c-12.94-6.43-25.29-13.41-37.19-21.61q-0.9-0.61-1.82-1.24c-13.72-9.38-26.53-19.92-38.63-31.31q-2.56-2.39-5.16-4.74c-6.16-5.64-12.07-11.25-17.39-17.71q-1.2-1.39-2.44-2.81c-12.25-14.15-22.97-29.12-32.56-45.19q-0.7-1.17-1.42-2.37c-13.05-22.14-21.88-45.99-29.57-70.41q-1.24-3.93-2.53-7.85c-4.22-13.38-6.04-27.43-8.25-41.25q-0.16-1.02-0.33-2.07c-1.28-8.14-2.06-16.13-2.07-24.38q0-1.29-0.01-2.61-0.01-4.16-0.01-8.31 0-1.41 0-2.87c0.03-13.39 0.19-26.62 2.19-39.88q0.21-1.42 0.42-2.89c4.45-29.86 12.36-58.46 24.58-86.11q0.52-1.2 1.06-2.44c12.93-29.32 31.3-56.02 52.94-79.56q1.76-1.99 3.5-4c0.85-0.97 0.85-0.97 1.71-1.95q1.89-2.17 3.77-4.35c10.16-11.6 21.71-21.46 34.02-30.7q1.01-0.76 2.05-1.55c23.84-17.94 50.13-32.66 77.95-43.45 1.07-0.43 1.07-0.43 2.17-0.87 36.71-14.6 75.62-19.44 114.83-19.57zm-58 31.44q-1.39 0.25-2.83 0.5c-5.13 0.93-10.15 2.1-15.17 3.5-1.42 0.39-1.42 0.39-2.86 0.79-56.35 15.87-110.04 48.47-146.86 94.62q-2.01 2.48-4.07 4.93c-31.66 38.2-50.32 84.23-59.21 132.66q-0.36 1.93-0.72 3.93c-7.57 45.02-3.3 92.91 10.72 136.07q0.45 1.42 0.92 2.88c9.64 29.82 24.89 58.39 44.08 83.12q1.06 1.38 2.15 2.79c3.99 5.09 8.21 9.94 12.58 14.72q2.22 2.43 4.38 4.92c10.38 11.88 22.17 21.65 34.81 31.02q2.91 2.18 5.79 4.39c9.94 7.56 20.48 13.95 31.29 20.16q0.97 0.56 1.97 1.14c22.71 13.13 48.03 21.69 73.47 27.67q1.84 0.44 3.73 0.88c35.52 8.08 78.44 9.75 114.14 1.9 2.76-0.61 5.53-1.12 8.32-1.62 38.5-7.22 76.88-24.73 108.37-47.97 0.84-0.61 0.84-0.61 1.7-1.24 6.62-4.88 12.95-10.08 19.17-15.45q0.91-0.78 1.84-1.58c3.73-3.25 7.26-6.64 10.72-10.18 1.57-1.55 1.57-1.55 4.57-3.99 3.76-3.21 6.81-6.79 10-10.56q1.23-1.42 2.5-2.88c22.44-25.9 39.58-55.45 52.5-87.12q0.49-1.18 1-2.4c26.61-64.42 24.23-143.17-1.81-207.3-19.13-45.74-48.81-89.5-88.19-120.3q-0.92-0.73-1.87-1.48c-39.96-31.56-86.54-52.52-137.02-59.9q-4.83-0.71-9.61-1.74c-29.22-6.05-61.48-2.18-90.5 3.12z"/>
	<path class="s5" d="m304.48 320.87q1.44 0 2.93-0.01 1.6 0.01 3.24 0.01 1.68 0 3.4 0 5.58-0.01 11.17 0 3.86 0 7.72-0.01 8.11 0 16.21 0.01 9.39 0.01 18.77 0 9.01-0.01 18.02 0 3.85 0 7.69-0.01 5.36 0 10.72 0.01c1.6 0 1.6 0 3.24-0.01 1.45 0.01 1.45 0.01 2.93 0.01q1.26 0 2.56 0c1.92 0.13 1.92 0.13 2.92 1.13q0.18 3.12 0.19 6.25 0.02 1.7 0.04 3.45c-0.23 3.23-0.92 5.38-2.23 8.3q0 0.98 0 2 1.48 0.98 3 2c1.55 4.66 1.72 9.14 1 14-2.44 4.55-6.32 7.85-11 10q-1.48 0-3 0 0.15 1.82 0.31 3.69c0 3.56-0.24 4.21-2.5 7.25-2.84 2.08-4.42 2.52-7.81 3.06-0.18 1.74-0.18 1.74-0.37 3.51q-0.25 2.31-0.51 4.61-0.11 1.14-0.23 2.31c-0.5 4.43-1.29 8.37-2.89 12.57 0.94-0.05 0.94-0.05 1.9-0.11q1.22-0.04 2.47-0.08c1.22-0.05 1.22-0.05 2.47-0.1q1.06 0.14 2.16 0.29c2.69 4.04 2.67 7.26 2 12-2 3.53-3.47 4.74-7.13 6.5-3.51 1.83-3.71 2.82-4.87 6.5-0.39 2.35-0.39 2.35-0.5 4.8-0.09 1.41-0.09 1.41-0.19 2.85-0.1 1.54-0.1 1.54-0.2 3.1-0.72 10.06-1.7 20.08-2.88 30.09q-0.12 1.02-0.24 2.07-0.76 6.42-1.54 12.83-0.81 6.74-1.61 13.48-0.14 1.11-0.27 2.26-0.14 1.11-0.27 2.25-0.4 3.34-0.81 6.69-1.56 13.06-2.99 26.14-0.48 4.33-0.96 8.65-0.29 2.64-0.56 5.27-0.37 3.57-0.78 7.14c-0.2 1.94-0.2 1.94-0.41 3.92-1.04 4.54-2.95 7.99-6.61 10.92-5.11 2.51-9.51 3.39-15.18 2.54-4.93-1.71-8.46-4.43-11-9-2.9-8.44-3.71-17.23-4.48-26.06q-0.57-6.46-1.21-12.91-0.14-1.45-0.28-2.95c-1.53-15.51-3.4-30.98-5.22-46.46q-0.13-1.15-0.27-2.33-0.27-2.31-0.54-4.63-0.27-2.26-0.53-4.52-0.62-5.25-1.24-10.51c-2.38-20.22-2.38-20.22-2.29-26.76q0.01-1.38 0.02-2.82 0.02-1.01 0.04-2.05-1.35 0.09-2.75 0.19c-3.63-0.21-4.76-0.61-7.25-3.19-2.45-4.29-2.31-8.18-2-13q0.98-1.48 2-3c2.16-0.29 2.16-0.29 4.62-0.19q1.22 0.04 2.48 0.08 0.94 0.06 1.9 0.11-0.43-1.85-0.88-3.76-0.56-2.46-1.12-4.93-0.28-1.22-0.58-2.47c-0.91-4.01-1.69-7.7-1.42-11.84q-1.11-0.12-2.25-0.25c-3.54-0.96-4.72-1.66-6.75-4.75-0.33-3.36-0.23-6.64 0-10q-1.79-0.03-3.63-0.06c-3.73-0.45-5.36-1.48-7.81-4.32-3.34-4.28-3.9-8.08-3.85-13.39 0.43-3.3 1.92-5 4.29-7.23q0.98-0.49 2-1c-0.99-1.08-0.99-1.08-2-2.19-3.34-4.88-2.49-11.16-2-16.81 1.6-1.6 3.27-1.13 5.48-1.13z"/>
	<path class="s6" d="m338 135c19.03 12.33 29.07 29.42 34.03 51.17 1.18 5.58 1.84 11.13 1.97 16.83 5.23-1.71 6.85-3.92 9.51-8.58 3.12-7.16 4.73-14.84 6.49-22.42 3.8 3.51 6.29 6.82 8.62 11.44q0.86 1.63 1.73 3.31c4.93 11.54 5.19 23.68 5.09 36-0.01 1.19-0.01 1.19-0.01 2.4-0.09 16.48-2.09 30.84-9.43 45.85q-0.62 1.32-1.27 2.68c-5.53 10.96-15.23 26.05-26.73 31.32 1.58-6.17 3.39-12.18 5.5-18.19 3.56-10.35 5.73-20.83 5.5-31.81q-0.62 0.79-1.25 1.61c-3.95 4.83-7.69 8.49-13.75 10.39q-1.97 0-4 0 0.46-3.41 0.94-6.81 0.26-1.89 0.52-3.83c0.54-3.36 0.54-3.36 1.54-6.36 0.79-12.21 0.29-25.24-8-35-2.89-2.81-5.88-5.45-9-8q-0.37 1.75-0.75 3.56-0.62 2.72-1.25 5.44-0.35 1.58-0.71 3.2c-1.65 6.86-3.75 12.95-6.79 19.33-6.65 14.12-8.41 28.03-3.05 43.03 2.47 5.47 5.27 10.76 8.2 15.99q0.64 1.16 1.3 2.36 0.59 1.03 1.2 2.1c0.85 1.99 0.85 1.99 0.85 5.99-19.1-11.52-38.06-28.91-44.54-50.84-2.56-12.13-1.46-26.92 3.54-38.16 0.38-0.9 0.38-0.9 0.77-1.81 4.36-10.2 10.3-18.6 17.16-27.27 13.74-17.37 15.33-33.37 16.07-54.92z"/>
	<path class="s7" d="m340 135c4.6 1.32 8.18 3.09 12 6q0 0.99 0 2 0.84 0.38 1.71 0.77c2.62 1.41 4.69 3.07 6.98 4.98q1.42 1.19 2.9 2.41 0.79 0.66 1.62 1.35 4.16 3.45 8.34 6.88 8.25 6.77 16.45 13.61c-1.52 10.36-3.67 22.74-12 30q-1.97 0-4 0-0.16-0.81-0.32-1.65-1.55-7.95-3.18-15.88-0.6-2.99-1.19-5.98c-3.74-17.18-13.85-30.51-27.31-41.49q-0.99-0.49-2-1 0-0.99 0-2z"/>
	<path class="s8" d="m340 135c4.62 1.32 8.1 3.21 12 6q-0.49 1.97-1 4-0.81-0.61-1.64-1.24-1.07-0.81-2.17-1.64-1.06-0.79-2.15-1.61-2.48-1.82-5.04-3.51 0-0.99 0-2z"/>
</svg>