<?xml version="1.0" encoding="UTF-8"?>
<svg version="1.1" xmlns="http://www.w3.org/2000/svg" width="717" height="717">
<path d="M0 0 C236.61 0 473.22 0 717 0 C717 236.61 717 473.22 717 717 C480.39 717 243.78 717 0 717 C0 480.39 0 243.78 0 0 Z " fill="#F8AF40" transform="translate(0,0)"/>
<path d="M0 0 C236.61 0 473.22 0 717 0 C717 236.61 717 473.22 717 717 C480.39 717 243.78 717 0 717 C0 480.39 0 243.78 0 0 Z M289.875 18.1875 C289.12131134 18.34028412 288.36762268 18.49306824 287.59109497 18.65048218 C248.27824872 26.66603378 209.90717236 41.34516208 176 63 C174.94554687 63.67289063 173.89109375 64.34578125 172.8046875 65.0390625 C169.83782252 66.98340483 166.91338127 68.97649614 164 71 C162.91589844 71.74636719 161.83179688 72.49273437 160.71484375 73.26171875 C148.5668116 81.72025898 137.04503345 91.02433909 126.14453125 101.0390625 C124.19365117 102.82292734 122.20251952 104.53952794 120.1875 106.25 C111.47693445 113.86733668 103.40695714 122.14143597 96.2265625 131.21484375 C94.24784648 133.68997449 92.20308032 136.08937649 90.12207031 138.47851562 C46.22975918 189.14992392 21.40163523 254.12067777 13 320 C12.88140625 320.8677002 12.7628125 321.73540039 12.640625 322.62939453 C6.81897962 365.86723994 10.45251485 414.38050273 24.27539062 455.80859375 C25.11339042 458.34292198 25.90714724 460.88966832 26.703125 463.4375 C40.64234776 507.372013 62.98012788 546.34941234 92 582 C92.43538086 582.53979492 92.87076172 583.07958984 93.31933594 583.63574219 C105.60668682 598.77599746 119.51061087 613.13385979 135 625 C136.1225375 625.90807447 137.24212328 626.81980501 138.359375 627.734375 C166.4081603 650.6406322 197.24871909 669.68673653 231 683 C231.79712402 683.31662598 232.59424805 683.63325195 233.41552734 683.95947266 C251.64268157 691.12829589 270.11663886 695.99826642 289.3125 699.75 C290.06973358 699.89888672 290.82696716 700.04777344 291.60714722 700.20117188 C293.83701157 700.63630863 296.06843878 701.06215052 298.30078125 701.484375 C300.23691284 701.85127441 300.23691284 701.85127441 302.2121582 702.22558594 C314.36489687 704.28210048 326.26559615 705.32258965 338.6015625 705.3359375 C340.053824 705.34240586 341.50608434 705.34913674 342.95834351 705.35610962 C345.98528034 705.36796881 349.01210415 705.37180309 352.0390625 705.37060547 C355.07153533 705.37044429 358.10339517 705.38413286 361.13574219 705.41162109 C398.98118187 705.74909986 436.21256444 700.90556633 472 688 C473.0612207 687.6174707 474.12244141 687.23494141 475.21582031 686.84082031 C509.66811594 674.23050501 542.50455297 657.26413136 571 634 C571.72541992 633.41444336 572.45083984 632.82888672 573.19824219 632.22558594 C580.92376968 625.98714747 588.54643146 619.6619798 595.8671875 612.94921875 C597.94289048 611.0521935 600.05688684 609.2099197 602.1875 607.375 C608.66780708 601.7144908 614.41265993 595.53137002 620 589 C621.18529297 587.64841797 621.18529297 587.64841797 622.39453125 586.26953125 C657.35609222 546.09675575 679.707122 498.62981938 695 448 C695.3710083 446.79029541 695.3710083 446.79029541 695.74951172 445.55615234 C698.96884133 434.90547942 700.96592202 424.09225795 702.75 413.125 C703.06650513 411.18149658 703.06650513 411.18149658 703.3894043 409.19873047 C716.72506526 323.6688245 693.71242128 228.9553646 643.1328125 159.015625 C637.34216536 151.11420886 631.21890288 143.57759198 624.76953125 136.20703125 C622.41020843 133.50372346 620.20011877 130.71002278 618 127.875 C608.24724195 115.87160548 596.77029501 104.46292249 584.54296875 94.984375 C582.11933851 93.09312437 579.80114167 91.10841713 577.48608398 89.08666992 C530.69685204 48.4518634 469.83730681 23.99347538 409 15 C407.92790283 14.82194824 406.85580566 14.64389648 405.7512207 14.46044922 C391.60583248 12.41517979 377.33973807 12.69566739 363.08081055 12.73925781 C359.32136183 12.75064146 355.56219631 12.74387352 351.80275726 12.73240185 C330.68489864 12.6772127 310.59695716 13.94619763 289.875 18.1875 Z " fill="#FDFDFD" transform="translate(0,0)"/>
<path d="M0 0 C0.350625 0.4125 0.70125 0.825 1.0625 1.25 C3.22452592 3.20279761 5.57090134 4.43728373 8.109375 5.83984375 C11.38978197 7.85282075 14.13971587 10.44212476 17 13 C18.86932639 14.57142577 20.74181919 16.13891645 22.6171875 17.703125 C24 19 24 19 25 21 C25.845625 21.495 26.69125 21.99 27.5625 22.5 C28.366875 22.995 29.17125 23.49 30 24 C30 24.66 30 25.32 30 26 C30.99 26 31.98 26 33 26 C33.495 26.99 33.495 26.99 34 28 C35.64956123 28.9089419 37.299689 29.81687582 38.953125 30.71875 C42.03691469 32.6490611 44.62635018 35.05796765 47.30078125 37.51171875 C48.94362206 39.07718358 48.94362206 39.07718358 51 40 C51 40.66 51 41.32 51 42 C51.639375 42.28875 52.27875 42.5775 52.9375 42.875 C55 44 55 44 56 46 C56.825 46.495 57.65 46.99 58.5 47.5 C61 49 61 49 62 51 C62.94875 51.515625 63.8975 52.03125 64.875 52.5625 C70.46139895 55.64071983 75.12891758 59.92233821 80 64 C82.92584217 66.35476525 85.85324847 68.70747869 88.78515625 71.0546875 C91 73 91 73 93 76 C93.86625 76.515625 94.7325 77.03125 95.625 77.5625 C96.40875 78.036875 97.1925 78.51125 98 79 C98 79.66 98 80.32 98 81 C98.99 81 99.98 81 101 81 C102.45922852 82.32861328 102.45922852 82.32861328 104 84 C105.20006926 84.93676222 106.41893154 85.849784 107.65234375 86.7421875 C108.34650391 87.25136719 109.04066406 87.76054687 109.75585938 88.28515625 C111.20402024 89.34048565 112.65452794 90.39260253 114.10742188 91.44140625 C118.02951942 94.32754661 121.05343382 97.0735453 124 101 C125.65661761 102.01656081 127.32111559 103.02065076 129 104 C129 104.66 129 105.32 129 106 C129.99 106 130.98 106 132 106 C133.40234375 107.28125 133.40234375 107.28125 135 109 C137.28892085 110.79523204 139.61291552 112.53774955 141.94140625 114.28125 C144 116 144 116 146 119 C146.969375 119.474375 147.93875 119.94875 148.9375 120.4375 C152.11369363 122.05800695 152.98325409 123.19409264 155 126 C156.64821244 127.03013277 158.31503702 128.03114628 160 129 C160.6496875 129.66515625 160.6496875 129.66515625 161.3125 130.34375 C164.33308225 133.30839554 167.9426193 135.54868202 171.40625 137.96484375 C173.80294228 139.84538091 175.22643448 141.56899209 177 144 C178.6871401 144.97335006 180.37703611 145.94309351 182.09375 146.86328125 C185.92671067 149.14891968 189.27776783 152.21517468 192.37036133 155.42016602 C194.04219859 157.04090893 195.76668569 158.37786837 197.65234375 159.7421875 C198.34650391 160.25136719 199.04066406 160.76054687 199.75585938 161.28515625 C201.20402024 162.34048565 202.65452794 163.39260253 204.10742188 164.44140625 C208.03407933 167.3309021 211.02888148 170.08917888 214 174 C215.99145391 175.01691264 217.99187074 176.01642648 220 177 C221.67090214 178.6624204 223.33695782 180.32971671 225 182 C227.01646272 183.61530966 229.0598926 185.19736397 231.125 186.75 C232.26911559 187.61992918 233.41232757 188.49104789 234.5546875 189.36328125 C235.12670898 189.79979004 235.69873047 190.23629883 236.28808594 190.68603516 C238.96597424 192.74142518 241.61418434 194.82815927 244.25 196.9375 C245.58804688 198.00291016 245.58804688 198.00291016 246.953125 199.08984375 C249 201 249 201 250 204 C250.99 204 251.98 204 253 204 C254.66796875 205.0078125 254.66796875 205.0078125 256 207 C256.27766682 209.71695495 256.3778125 212.16423423 256.3125 214.875 C256.3012207 215.64094482 256.28994141 216.40688965 256.27832031 217.19604492 C256.11814211 223.92704217 255.28991638 230.39099024 254 237 C253.79068848 238.11181641 253.79068848 238.11181641 253.57714844 239.24609375 C252.60951957 244.38212809 251.58242835 249.50283443 250.50146484 254.61621094 C250.06700703 256.68147193 249.65095621 258.75058886 249.23828125 260.8203125 C239.18018651 306.2534624 213.05127562 350.67370771 181.4296875 384.3828125 C179.48217645 386.48061379 177.62911965 388.60309773 175.8125 390.8125 C173.22570121 393.86829347 170.35178342 396.42221744 167.30078125 399.0078125 C164.64689942 401.30574074 162.11532603 403.71535573 159.5625 406.125 C131.23376398 432.36458277 96.08691427 451.68304091 59.6875 464.0625 C57.96019653 464.65466309 57.96019653 464.65466309 56.19799805 465.25878906 C45.28862809 468.84618049 45.28862809 468.84618049 40 468 C37.3671875 466.41796875 37.3671875 466.41796875 34.875 464.1875 C33.46734375 462.95966797 33.46734375 462.95966797 32.03125 461.70703125 C31.54011719 461.26697754 31.04898438 460.82692383 30.54296875 460.37353516 C27.86438505 457.98908707 25.11525641 455.6879649 22.375 453.375 C21.5399292 452.66537109 21.5399292 452.66537109 20.68798828 451.94140625 C17.07238686 448.87505077 13.38509382 445.93857179 9.62109375 443.05859375 C5.96465236 440.18684321 2.39332358 437.2151843 -1.1875 434.25 C-6.53179349 429.82745952 -11.90665788 425.45584694 -17.375 421.1875 C-21.68768887 417.81711549 -25.98938375 414.43615934 -30.25 411 C-31.12140625 410.29875 -31.9928125 409.5975 -32.890625 408.875 C-35 407 -35 407 -37 404 C-36.33613281 403.89042969 -35.67226563 403.78085937 -34.98828125 403.66796875 C-26.77458169 402.25992164 -26.77458169 402.25992164 -20.46972656 397.11352539 C-18.24694046 392.40468964 -17.96341107 387.63929252 -17.421875 382.49609375 C-17.28961517 381.3334198 -17.15735535 380.17074585 -17.02108765 378.97283936 C-16.58627945 375.12888285 -16.16815371 371.28330082 -15.75 367.4375 C-15.45161464 364.75858095 -15.14955832 362.08008092 -14.84716797 359.40161133 C-14.37612497 355.22300375 -13.90623184 351.04428285 -13.44198608 346.86491394 C-12.34243285 336.97277064 -11.19702106 327.08674281 -10.0234375 317.203125 C-9.86164688 315.83729098 -9.69990342 314.47145137 -9.53820801 313.10560608 C-8.9163361 307.85477192 -8.29408761 302.60398644 -7.6673584 297.35372925 C-7.23558175 293.72972056 -6.80754734 290.10530921 -6.3828125 286.48046875 C-6.25209351 285.36490097 -6.12137451 284.24933319 -5.98669434 283.09996033 C-5.17586486 276.00772033 -4.57548539 268.94685799 -4.30419922 261.8137207 C-3.98369818 258.8492147 -3.3428723 256.65729143 -2 254 C-0.36935236 252.94228261 1.30280873 251.94726954 3 251 C6.82351129 248.11615828 6.82351129 248.11615828 8.34765625 243.74609375 C8.41809095 239.21801455 8.41809095 239.21801455 7 235 C4.87423218 234.53348793 4.87423218 234.53348793 2.4375 234.375 C1.61121094 234.30023438 0.78492188 234.22546875 -0.06640625 234.1484375 C-1.02353516 234.07496094 -1.02353516 234.07496094 -2 234 C-1.53502075 230.84407701 -1.05515897 227.69226878 -0.546875 224.54296875 C-0.2139743 222.38624781 0.07830814 220.22207041 0.296875 218.05078125 C0.61990525 215.47807605 0.93445422 213.36736475 2 211 C3.99986392 209.74476626 5.97770607 209.0082806 8.1875 208.1875 C10.23341615 207.12581495 10.23341615 207.12581495 10.6875 204.6875 C10.790625 203.800625 10.89375 202.91375 11 202 C11.32421875 199.328125 11.32421875 199.328125 12 197 C13.90094721 195.52100217 15.72650369 194.78430454 17.95703125 193.89453125 C21.55316135 192.31993509 23.04915294 190.35301838 25 187 C25.59762463 182.14951174 25.54961749 177.64885248 24 173 C22.00334686 171.31461399 22.00334686 171.31461399 20 170 C20.66 169.34 21.32 168.68 22 168 C23.28568472 164.4744746 23.09965554 160.96555437 23.0625 157.25 C23.05347656 156.07953125 23.04445313 154.9090625 23.03515625 153.703125 C23.02355469 152.81109375 23.01195312 151.9190625 23 151 C22.33094131 151.0030162 21.66188263 151.00603241 20.97254944 151.00914001 C13.97980876 151.03378988 6.98842997 151.0094621 -0.00415039 150.95727539 C-2.61023733 150.94417297 -5.21641731 150.94336696 -7.82250977 150.95532227 C-11.57921102 150.97038637 -15.33335178 150.94056458 -19.08984375 150.90234375 C-20.24645004 150.91659897 -21.40305634 150.93085419 -22.5947113 150.94554138 C-32.42403932 150.77143843 -37.01984099 147.07272085 -43.6875 140.25 C-50.06370665 131.28884471 -54.60688856 121.05090647 -59 111 C-59.36609375 110.18273437 -59.7321875 109.36546875 -60.109375 108.5234375 C-64.36035599 97.17412033 -63.65562321 83.85387646 -58.97583008 72.86376953 C-57.75951468 70.20827273 -56.51618223 67.56735355 -55.26171875 64.9296875 C-50.7894024 55.50372927 -48.82846432 45.22496497 -47 35 C-37.47152546 40.81004545 -32.4262333 47.25408647 -29 58 C-26.3112983 70.77984162 -27.90578465 83.71735394 -32 96 C-22.97554831 93.66714854 -17.51808029 89.50458919 -12 82 C-10.85161869 99.69357866 -17.45294935 116.51463085 -23 133 C-6.90325332 119.5213401 5.30521179 101.67652841 10 81 C10.17370117 80.27087402 10.34740234 79.54174805 10.52636719 78.79052734 C12.2283649 70.80084645 12.37229976 62.85405103 12.37060547 54.72314453 C12.37495451 52.39930498 12.41132218 50.07740889 12.44921875 47.75390625 C12.56079253 32.99050613 10.50983088 18.47298069 2 6 C1.34 5.34 0.68 4.68 0 4 C0 2.68 0 1.36 0 0 Z " fill="#C68B32" transform="translate(392,171)"/>
<path d="M0 0 C0.69073231 -0.00407553 1.38146461 -0.00815105 2.0931282 -0.01235008 C5.76520719 -0.03306869 9.43725063 -0.04741846 13.109375 -0.05688477 C16.07215603 -0.06564065 19.03445203 -0.08628392 21.99707031 -0.1184082 C47.65090829 -0.38997337 72.65109293 1.2748939 97.6640625 7.55078125 C98.89664795 7.85072998 100.1292334 8.15067871 101.39916992 8.4597168 C126.66372545 14.71985937 151.29807381 22.99404498 174.33740234 35.24072266 C176.3173413 36.2862164 178.31117308 37.30084386 180.30859375 38.3125 C200.68723272 48.72998269 219.74280896 61.48022524 237.2265625 76.23828125 C238.29928202 77.13565239 239.3722071 78.03277785 240.4453125 78.9296875 C255.26667681 91.35216804 270.00762239 104.20941812 282.00390625 119.45703125 C284.08828408 122.06525096 286.25153681 124.56771003 288.45849609 127.07104492 C300.68744796 141.00512726 310.91761192 156.23544465 320.2265625 172.23828125 C320.67209473 172.99238281 321.11762695 173.74648437 321.57666016 174.5234375 C351.76795205 225.88883084 366.75937469 288.1355841 366.48730469 347.46777344 C366.47656416 350.23785259 366.48729778 353.00728365 366.5 355.77734375 C366.51336504 372.15006515 365.40895339 388.48513138 362.4765625 404.61328125 C362.30447266 405.56493164 362.13238281 406.51658203 361.95507812 407.49707031 C350.70353644 467.48555306 323.57064392 526.34525659 283.2265625 572.23828125 C282.61554687 572.94855469 282.00453125 573.65882813 281.375 574.390625 C279.67770003 576.3574015 277.95636077 578.30002949 276.2265625 580.23828125 C275.44152344 581.12773438 274.65648437 582.0171875 273.84765625 582.93359375 C263.71539133 594.29349769 252.65720675 604.36524125 240.5859375 613.625 C237.41838117 616.062068 234.38481261 618.63542473 231.3515625 621.23828125 C173.71161059 669.50030447 96.32952209 693.22375292 22.02148438 692.75976562 C18.33333002 692.73693444 14.64632846 692.75058619 10.95821285 692.77353191 C-7.97333296 692.87319018 -26.08733803 691.5857173 -44.7734375 688.23828125 C-45.55199097 688.10234558 -46.33054443 687.96640991 -47.13269043 687.82635498 C-51.1395988 687.11855205 -55.11506208 686.31248466 -59.0859375 685.42578125 C-60.23360596 685.17280273 -61.38127441 684.91982422 -62.5637207 684.65917969 C-115.7836817 672.60104342 -164.28999714 646.39165589 -205.7734375 611.23828125 C-206.80800902 610.38861044 -207.84319973 609.53969319 -208.87890625 608.69140625 C-223.09108273 596.92480458 -236.50840612 583.87011712 -247.7734375 569.23828125 C-248.67110312 568.13786235 -249.57240149 567.04040071 -250.4765625 565.9453125 C-262.52246678 551.29012929 -273.43473565 535.75555564 -282.7734375 519.23828125 C-283.45720459 518.04477051 -283.45720459 518.04477051 -284.15478516 516.82714844 C-296.12904628 495.84556007 -305.27785427 474.18488266 -312.7734375 451.23828125 C-312.99225586 450.57086914 -313.21107422 449.90345703 -313.43652344 449.21582031 C-314.6192947 445.57575697 -315.71756498 441.91696039 -316.7734375 438.23828125 C-317.08667969 437.18253906 -317.39992188 436.12679688 -317.72265625 435.0390625 C-340.10773799 356.02768704 -329.82100568 267.49348502 -293.7734375 194.23828125 C-293.30035156 193.27293457 -292.82726562 192.30758789 -292.33984375 191.31298828 C-281.89302544 170.18932348 -269.52505984 150.61204406 -254.7734375 132.23828125 C-253.98453125 131.24828125 -253.195625 130.25828125 -252.3828125 129.23828125 C-250.20777471 126.54686759 -247.99770325 123.88911851 -245.7734375 121.23828125 C-245.34804687 120.72265625 -244.92265625 120.20703125 -244.484375 119.67578125 C-233.84099212 106.78208313 -222.36688651 94.51037285 -209.1953125 84.1640625 C-206.89553404 82.33536769 -204.74432545 80.41782727 -202.5859375 78.42578125 C-191.58690452 68.56390319 -179.20639773 60.17399877 -166.7734375 52.23828125 C-165.12794922 51.18447266 -165.12794922 51.18447266 -163.44921875 50.109375 C-143.3801661 37.54915157 -121.98687903 27.3563116 -99.7734375 19.23828125 C-98.42523926 18.74207275 -98.42523926 18.74207275 -97.04980469 18.23583984 C-78.32221671 11.43308353 -59.01312789 7.11768053 -39.4609375 3.42578125 C-38.37087402 3.21872559 -37.28081055 3.01166992 -36.15771484 2.79833984 C-35.10664551 2.6070752 -34.05557617 2.41581055 -32.97265625 2.21875 C-31.60886841 1.96967896 -31.60886841 1.96967896 -30.2175293 1.71557617 C-20.16611044 0.32261354 -10.13583564 0.05717675 0 0 Z M-38.7734375 33.23828125 C-39.98741211 33.47434082 -41.20138672 33.71040039 -42.45214844 33.95361328 C-70.45417691 39.56052603 -97.20263617 48.49932229 -122.7734375 61.23828125 C-124.0423584 61.86452393 -124.0423584 61.86452393 -125.33691406 62.50341797 C-150.240466 74.88642673 -173.05575262 90.71182854 -193.7734375 109.23828125 C-194.2895459 109.69267578 -194.8056543 110.14707031 -195.33740234 110.61523438 C-203.36598065 117.68506259 -210.6461424 125.27345321 -217.7734375 133.23828125 C-218.39605469 133.92277344 -219.01867187 134.60726562 -219.66015625 135.3125 C-235.55771067 153.05771207 -248.95911948 172.58960539 -260.7734375 193.23828125 C-261.18190918 193.94919922 -261.59038086 194.66011719 -262.01123047 195.39257812 C-269.08359177 207.83518946 -274.54321588 220.93308486 -279.7734375 234.23828125 C-280.07378906 235.00108398 -280.37414062 235.76388672 -280.68359375 236.54980469 C-290.38931602 261.59947677 -295.55780958 287.78273673 -298.45947266 314.38696289 C-298.64880747 316.10643512 -298.84844938 317.82487914 -299.06787109 319.54077148 C-302.42953848 347.68631639 -299.91204067 376.50395341 -294.7734375 404.23828125 C-294.5971582 405.24552246 -294.42087891 406.25276367 -294.23925781 407.29052734 C-289.61963696 433.16870285 -280.02059505 459.54348681 -268.7734375 483.23828125 C-268.43892578 483.94742676 -268.10441406 484.65657227 -267.75976562 485.38720703 C-265.53525353 490.06063375 -263.19856447 494.66601549 -260.7734375 499.23828125 C-260.42845215 499.89103027 -260.0834668 500.5437793 -259.72802734 501.21630859 C-245.17550196 528.50478898 -224.40510127 556.70554799 -200.58984375 576.671875 C-198.77411105 578.23770041 -197.12401046 579.88730245 -195.4609375 581.61328125 C-190.89850833 586.22674431 -185.86023789 590.22370582 -180.7734375 594.23828125 C-179.86440674 594.96192871 -179.86440674 594.96192871 -178.93701172 595.70019531 C-162.29784981 608.89979106 -144.63599544 620.46505395 -125.7734375 630.23828125 C-124.92507324 630.67881836 -124.07670898 631.11935547 -123.20263672 631.57324219 C-52.23812719 667.96596063 36.06467334 675.10283911 112.2265625 651.23828125 C147.51132578 639.58694726 182.52329446 623.105901 211.55175781 599.59375 C213.41106864 598.088955 215.28351539 596.60133137 217.15625 595.11328125 C231.22722889 583.87185619 244.49397486 571.93760323 256.2265625 558.23828125 C257.12036948 557.21941626 258.01496313 556.20124107 258.91015625 555.18359375 C266.47894784 546.53300899 273.52368425 537.57543752 280.2265625 528.23828125 C280.64615234 527.655625 281.06574219 527.07296875 281.49804688 526.47265625 C307.06591471 490.57059385 324.66443438 446.93726629 332.3515625 403.48828125 C332.58552734 402.25464844 332.58552734 402.25464844 332.82421875 400.99609375 C335.75424577 384.7719772 336.60517457 368.57083916 336.5390625 352.11328125 C336.53723969 351.16383636 336.53541687 350.21439148 336.53353882 349.23617554 C336.44868072 322.76183243 334.25008364 297.08599135 328.2265625 271.23828125 C328.03336426 270.37525391 327.84016602 269.51222656 327.64111328 268.62304688 C322.85198033 247.28851146 315.70144784 226.93000965 306.2265625 207.23828125 C305.89688477 206.53799805 305.56720703 205.83771484 305.22753906 205.11621094 C295.37000238 184.19021175 282.63773282 165.22869905 267.53173828 147.765625 C265.50866141 145.39817851 263.55800562 142.9733682 261.6015625 140.55078125 C251.18123734 127.79232659 239.8813084 115.63943425 226.9453125 105.3984375 C224.12610669 103.15846507 221.39968451 100.82934239 218.6640625 98.48828125 C192.10243794 76.39911533 162.1348542 59.47112719 129.89501953 47.25292969 C127.72408872 46.42745956 125.56530407 45.58026373 123.41015625 44.71484375 C105.53512171 37.82802062 86.09609821 34.43942708 67.20410156 31.68017578 C65.1810447 31.3799353 63.16198108 31.05173471 61.14746094 30.69873047 C48.08449748 28.60753503 34.92260213 28.84122196 21.7265625 28.86328125 C20.45444916 28.86415741 19.18233582 28.86503357 17.87167358 28.86593628 C-1.32088914 28.90959866 -19.89966829 29.47702796 -38.7734375 33.23828125 Z " fill="#FAAF42" transform="translate(339.7734375,12.76171875)"/>
<path d="M0 0 C1.82029724 -0.00980392 1.82029724 -0.00980392 3.67736816 -0.01980591 C24.07542989 -0.08587209 43.82868151 1.63809466 63.8125 5.8125 C64.85325684 6.02672607 65.89401367 6.24095215 66.96630859 6.46166992 C76.10732179 8.38546394 85.09149104 10.62672461 94 13.4375 C94.86238281 13.70900879 95.72476562 13.98051758 96.61328125 14.26025391 C138.73418647 27.74698647 176.42962501 50.63823035 209.36914062 79.98583984 C210.80673494 81.26547095 212.2541878 82.53400812 213.703125 83.80078125 C223.44431546 92.39502509 232.70288004 101.45124999 240.76953125 111.6484375 C242.76488295 114.14350075 244.82910151 116.55991026 246.92895508 118.96704102 C275.63199748 152.06645553 294.81840863 193.19542645 305.26806641 235.47802734 C305.7406294 237.38877069 306.21905356 239.29807841 306.70458984 241.20556641 C310.49593303 256.15111181 312.62667235 271.08616786 314 286.4375 C314.09571289 287.47471191 314.19142578 288.51192383 314.29003906 289.58056641 C315.17573255 300.31523492 315.24328375 311.04669844 315.25 321.8125 C315.25101212 323.27765045 315.25101212 323.27765045 315.25204468 324.7723999 C315.23693976 338.56191938 314.91037015 352.08416809 312.48730469 365.69580078 C311.96322869 368.64438468 311.50221603 371.59986545 311.0390625 374.55859375 C308.12672049 392.11846068 302.81821928 408.6701318 297 425.4375 C296.71511719 426.27490723 296.43023438 427.11231445 296.13671875 427.97509766 C283.71550947 464.33370423 263.08702831 496.589418 238 525.4375 C237.38769531 526.15035156 236.77539062 526.86320313 236.14453125 527.59765625 C225.23997034 540.21172077 214.04132568 552.01431925 201 562.4375 C199.86336399 563.37482542 198.72799731 564.3136917 197.59375 565.25390625 C182.4756065 577.70160845 166.09124638 587.93065319 149 597.4375 C148.2795752 597.84097656 147.55915039 598.24445312 146.81689453 598.66015625 C135.87062671 604.75566583 124.65367695 609.8485813 113 614.4375 C112.16404297 614.77136719 111.32808594 615.10523438 110.46679688 615.44921875 C89.84571879 623.6101003 68.54089408 628.75385184 46.6875 632.3125 C45.44363525 632.51576904 44.19977051 632.71903809 42.91821289 632.9284668 C28.70874637 635.11913637 14.53565376 635.64640451 0.1875 635.625 C-0.9479425 635.62409363 -0.9479425 635.62409363 -2.10632324 635.62316895 C-49.27756825 635.52185295 -96.50370997 626.46936852 -139 605.4375 C-139.92796387 604.97972168 -140.85592773 604.52194336 -141.81201172 604.05029297 C-154.74559604 597.61255779 -167.10323723 590.63495947 -179 582.4375 C-179.60070312 582.02822266 -180.20140625 581.61894531 -180.8203125 581.19726562 C-194.53739121 571.81587149 -207.35063559 561.27299251 -219.44775391 549.88818359 C-221.15457434 548.29303936 -222.87859955 546.71794157 -224.60546875 545.14453125 C-230.77353985 539.50960352 -236.68120023 533.89604258 -242 527.4375 C-242.804375 526.509375 -243.60875 525.58125 -244.4375 524.625 C-256.68862305 510.4798764 -267.40593469 495.50370119 -277 479.4375 C-277.46792969 478.6542334 -277.93585938 477.8709668 -278.41796875 477.06396484 C-291.46958708 454.93196639 -300.29594929 431.07654281 -307.98535156 406.65722656 C-308.81240795 404.03277526 -309.66334315 401.41837227 -310.5234375 398.8046875 C-314.73792003 385.42989379 -316.55661817 371.37328249 -318.765625 357.55859375 C-318.87579956 356.87475113 -318.98597412 356.19090851 -319.0994873 355.48634338 C-320.37893625 347.34433371 -321.15554707 339.3556193 -321.16796875 331.109375 C-321.17220352 330.24647858 -321.17643829 329.38358215 -321.18080139 328.49453735 C-321.19061878 325.7254744 -321.19073469 322.95657715 -321.1875 320.1875 C-321.18689575 319.24142883 -321.1862915 318.29535767 -321.18566895 317.32061768 C-321.16237394 303.93081656 -320.99634119 290.70231349 -319 277.4375 C-318.86045898 276.48327148 -318.72091797 275.52904297 -318.57714844 274.54589844 C-314.12590859 244.69140442 -306.21561078 216.0911795 -294 188.4375 C-293.64856934 187.63296387 -293.29713867 186.82842773 -292.93505859 185.99951172 C-280.01270787 156.68196614 -261.6446165 129.98221643 -240 106.4375 C-238.82865335 105.1082762 -237.66175407 103.77511593 -236.5 102.4375 C-235.65308594 101.47070312 -235.65308594 101.47070312 -234.7890625 100.484375 C-233.52798356 99.04156852 -232.2733615 97.59310585 -231.0234375 96.140625 C-220.86104204 84.53701709 -209.306321 74.68203574 -197 65.4375 C-196.32340332 64.92574219 -195.64680664 64.41398437 -194.94970703 63.88671875 C-171.11391939 45.94850182 -144.8212256 31.22739036 -117 20.4375 C-115.92806396 20.00775879 -115.92806396 20.00775879 -114.83447266 19.56933594 C-78.11829382 4.96923587 -39.20860644 0.12622147 0 0 Z M-58 31.4375 C-58.93376465 31.60266113 -59.8675293 31.76782227 -60.82958984 31.93798828 C-65.95937523 32.86796142 -70.97761645 34.04210092 -76 35.4375 C-77.41756592 35.82929443 -77.41756592 35.82929443 -78.86376953 36.22900391 C-135.214654 52.09767935 -188.89613718 84.69912149 -225.71826172 130.84814453 C-227.05591156 132.50683033 -228.4182114 134.1427388 -229.78515625 135.77734375 C-261.45154576 173.97865411 -280.10571717 220.00921467 -289 268.4375 C-289.23847656 269.73300781 -289.47695313 271.02851563 -289.72265625 272.36328125 C-297.29140506 317.38332047 -293.01670603 365.27568904 -279 408.4375 C-278.69755371 409.38705566 -278.39510742 410.33661133 -278.08349609 411.31494141 C-268.44334776 441.14031473 -253.19115598 469.70308183 -234 494.4375 C-233.29101562 495.35917969 -232.58203125 496.28085937 -231.8515625 497.23046875 C-227.85748459 502.32173408 -223.63543996 507.17033228 -219.26953125 511.9453125 C-217.79040137 513.56955496 -216.32841881 515.20963216 -214.88671875 516.8671875 C-204.50867543 528.74407072 -192.71880629 538.5135354 -180.08154297 547.88671875 C-178.13666506 549.33568245 -176.2090458 550.80459626 -174.28515625 552.28125 C-164.35103748 559.83484261 -153.81495298 566.22866365 -143 572.4375 C-142.35095703 572.81503418 -141.70191406 573.19256836 -141.03320312 573.58154297 C-118.32194057 586.7064827 -92.99856021 595.26627432 -67.5625 601.25 C-66.33063965 601.54028076 -65.0987793 601.83056152 -63.82958984 602.12963867 C-28.30895208 610.20771151 14.60958743 611.87829044 50.30810547 604.02294922 C53.07286362 603.42165319 55.84416159 602.91005609 58.62890625 602.41015625 C97.13108813 595.18624022 135.50602722 577.67475647 167 554.4375 C167.83917969 553.82358398 167.83917969 553.82358398 168.6953125 553.19726562 C175.32133005 548.32196124 181.64604414 543.11949715 187.875 537.75 C188.48158447 537.22744629 189.08816895 536.70489258 189.71313477 536.16650391 C193.43867441 532.91387824 196.97282939 529.52522056 200.42626953 525.98486328 C202 524.4375 202 524.4375 205 522 C208.76309868 518.78568654 211.81284922 515.21191849 215 511.4375 C215.82628906 510.48746094 216.65257812 509.53742188 217.50390625 508.55859375 C239.94160003 482.65709113 257.07651398 453.10375276 270 421.4375 C270.32983887 420.64585449 270.65967773 419.85420898 270.99951172 419.03857422 C297.61231216 354.61417335 295.23160305 275.86350036 269.1940918 211.73999023 C250.05896228 166.00030177 220.38426121 122.23816149 181 91.4375 C180.38237793 90.94878418 179.76475586 90.46006836 179.12841797 89.95654297 C139.16933985 58.39557808 92.58649358 37.43784399 42.11328125 30.05859375 C38.88092553 29.58472909 35.6945388 29.00171546 32.5 28.3125 C3.27509666 22.26654965 -28.97717085 26.13251075 -58 31.4375 Z " fill="#FDFDFB" transform="translate(361,41.5625)"/>
<path d="M0 0 C0.96755722 -0.00281982 1.93511444 -0.00563965 2.93199158 -0.00854492 C4.00216019 -0.00652069 5.0723288 -0.00449646 6.17492676 -0.00241089 C7.29512711 -0.00416321 8.41532745 -0.00591553 9.56947327 -0.00772095 C13.29279098 -0.01214213 17.01606164 -0.00920053 20.73937988 -0.00582886 C23.31388356 -0.00650182 25.88838717 -0.00747178 28.46289062 -0.00872803 C33.86674663 -0.01020536 39.27058478 -0.00814389 44.67443848 -0.00338745 C50.9302446 0.00205514 57.18601815 0.00029247 63.44182348 -0.00521386 C69.44914038 -0.0102907 75.45644128 -0.00976344 81.46376038 -0.00683212 C84.02515162 -0.00616259 86.58654368 -0.00699219 89.14793396 -0.00931168 C92.72075641 -0.01183663 96.29351532 -0.00799982 99.86633301 -0.00241089 C101.47158592 -0.00544724 101.47158592 -0.00544724 103.10926819 -0.00854492 C104.56060402 -0.00431519 104.56060402 -0.00431519 106.04125977 0 C106.8870887 0.00037703 107.73291763 0.00075405 108.60437775 0.0011425 C110.52062988 0.12698364 110.52062988 0.12698364 111.52062988 1.12698364 C111.64698412 3.20742077 111.69644694 5.29274576 111.70812988 7.37698364 C111.72230957 8.51651489 111.73648926 9.65604614 111.75109863 10.83010864 C111.52532254 14.05985474 110.83252412 16.20244472 109.52062988 19.12698364 C109.52062988 19.78698364 109.52062988 20.44698364 109.52062988 21.12698364 C110.51062988 21.78698364 111.50062988 22.44698364 112.52062988 23.12698364 C114.07540381 27.79130544 114.24027236 32.26600237 113.52062988 37.12698364 C111.08003453 41.68057766 107.20159132 44.97627163 102.52062988 47.12698364 C101.53062988 47.12698364 100.54062988 47.12698364 99.52062988 47.12698364 C99.62375488 48.34385864 99.72687988 49.56073364 99.83312988 50.81448364 C99.83312988 54.37842571 99.59377317 55.02876266 97.33312988 58.06448364 C94.48826765 60.15071594 92.91413829 60.58516297 89.52062988 61.12698364 C89.33887207 62.86335083 89.33887207 62.86335083 89.15344238 64.63479614 C88.98451673 66.17389657 88.81522657 67.71295702 88.64562988 69.25198364 C88.56699707 70.01253052 88.48836426 70.77307739 88.40734863 71.55667114 C87.91089323 75.98658086 87.1166291 79.92910336 85.52062988 84.12698364 C86.46035645 84.07477661 86.46035645 84.07477661 87.41906738 84.02151489 C88.23633301 83.99444458 89.05359863 83.96737427 89.89562988 83.93948364 C91.11379395 83.88727661 91.11379395 83.88727661 92.35656738 83.83401489 C93.07070801 83.93069458 93.78484863 84.02737427 94.52062988 84.12698364 C97.21098011 88.16250898 97.18816864 91.38745849 96.52062988 96.12698364 C94.52391605 99.6596312 93.05301369 100.87143941 89.39562988 102.62698364 C85.88425707 104.45900424 85.67935822 105.4443152 84.52062988 109.12698364 C84.13350654 111.47933737 84.13350654 111.47933737 84.02185059 113.92605591 C83.92591866 115.33781349 83.92591866 115.33781349 83.82804871 116.77809143 C83.73195061 118.31397667 83.73195061 118.31397667 83.63391113 119.88088989 C82.91433999 129.94074025 81.93496935 139.95221892 80.75109863 149.96682739 C80.67037487 150.65159653 80.58965111 151.33636566 80.50648117 152.04188538 C80.00134146 156.3160642 79.48887884 160.58933886 78.973526 164.86229706 C78.43176821 169.35765949 77.89436352 173.85354475 77.35619926 178.34933853 C77.26700281 179.09447582 77.17780636 179.83961311 77.08590698 180.60733032 C76.99700573 181.35011734 76.90810448 182.09290436 76.81650925 182.85820007 C76.54946099 185.08722506 76.28160345 187.31615183 76.01370239 189.54507446 C74.96913555 198.2536166 73.97342317 206.96599796 73.02453613 215.68557739 C72.70466886 218.57078693 72.38360023 221.4558598 72.06204224 224.34088135 C71.86976887 226.09667206 71.68310256 227.85308705 71.50241089 229.61010742 C71.25730036 231.98996942 70.99277846 234.36691292 70.72375488 236.74417114 C70.51734375 238.68719116 70.51734375 238.68719116 70.3067627 240.66946411 C69.27442007 245.20984805 67.35937905 248.65440936 63.69641113 251.58792114 C58.5869929 254.0944282 54.19091492 254.98068827 48.52062988 254.12698364 C43.59403344 252.42162334 40.05890998 249.69954496 37.52062988 245.12698364 C34.62066764 236.6852538 33.81142083 227.90121592 33.04153442 219.06552124 C32.66384024 214.75939822 32.24981635 210.45682934 31.83312988 206.15432739 C31.73901321 205.18221313 31.64489655 204.21009888 31.54792786 203.20852661 C30.01678207 187.70095245 28.14760245 172.2284088 26.33312988 156.75198364 C26.24272556 155.98067738 26.15232124 155.20937111 26.0591774 154.41469193 C25.87850547 152.8733802 25.69780544 151.33207176 25.51707649 149.79076672 C25.34047666 148.28448381 25.1639455 146.77819284 24.98748589 145.2718935 C24.57688547 141.76712863 24.1654138 138.26247346 23.75146484 134.75810242 C21.37429965 114.5407415 21.37429965 114.5407415 21.45812988 108.00198364 C21.46715332 107.07128052 21.47617676 106.14057739 21.48547363 105.18167114 C21.4970752 104.50362427 21.50867676 103.82557739 21.52062988 103.12698364 C20.61312988 103.18885864 19.70562988 103.25073364 18.77062988 103.31448364 C15.14301456 103.10519814 14.01159838 102.7069153 11.52062988 100.12698364 C9.06766687 95.83429837 9.20992069 91.94297616 9.52062988 87.12698364 C10.18062988 86.13698364 10.84062988 85.14698364 11.52062988 84.12698364 C13.68469238 83.83401489 13.68469238 83.83401489 16.14562988 83.93948364 C16.96289551 83.96655396 17.78016113 83.99362427 18.62219238 84.02151489 C19.24867676 84.05631958 19.87516113 84.09112427 20.52062988 84.12698364 C20.23187988 82.88561646 19.94312988 81.64424927 19.64562988 80.36526489 C19.27034704 78.72340243 18.89536271 77.08147172 18.52062988 75.43948364 C18.32984863 74.62286255 18.13906738 73.80624146 17.94250488 72.96487427 C17.03329072 68.95459038 16.25062891 65.26981112 16.52062988 61.12698364 C15.77812988 61.04448364 15.03562988 60.96198364 14.27062988 60.87698364 C10.73273871 59.91210423 9.55240569 59.21227283 7.52062988 56.12698364 C7.18834471 52.76721135 7.28949428 49.4912907 7.52062988 46.12698364 C6.32437988 46.10635864 5.12812988 46.08573364 3.89562988 46.06448364 C0.16373057 45.62036774 -1.46486734 44.5858068 -3.91687012 41.75198364 C-7.26323614 37.46644678 -7.81562827 33.66948535 -7.77233887 28.35354614 C-7.3388363 25.05892667 -5.85387469 23.36181148 -3.47937012 21.12698364 C-2.81937012 20.79698364 -2.15937012 20.46698364 -1.47937012 20.12698364 C-2.46937012 19.04417114 -2.46937012 19.04417114 -3.47937012 17.93948364 C-6.81973288 13.05287522 -5.97264691 6.77945052 -5.47937012 1.12698364 C-3.88188512 -0.47050136 -2.21345378 0.00098664 0 0 Z " fill="#FDFDFC" transform="translate(304.4793701171875,320.8730163574219)"/>
<path d="M0 0 C19.02521155 12.32502835 29.0682596 29.41888493 34.03125 51.171875 C35.21216615 56.74842347 35.87253392 62.29878993 36 68 C41.23179341 66.29436465 42.84696803 64.08478663 45.5078125 59.41796875 C48.63081484 52.26449481 50.24059227 44.58258023 52 37 C55.80461973 40.5104481 58.28848778 43.82315509 60.625 48.4375 C61.19476563 49.52933594 61.76453125 50.62117188 62.3515625 51.74609375 C67.28006647 63.28522469 67.53619454 75.43266426 67.4375 87.75 C67.43343643 88.93855591 67.43343643 88.93855591 67.42929077 90.15112305 C67.34377271 106.63218024 65.34198674 120.99211533 58 136 C57.58234375 136.88558594 57.1646875 137.77117187 56.734375 138.68359375 C51.1989522 149.64309465 41.50143548 164.73368397 30 170 C31.57704023 163.8328752 33.38933651 157.81928251 35.5 151.8125 C39.06041831 141.46195058 41.23106722 130.98177356 41 120 C40.5875 120.53109375 40.175 121.0621875 39.75 121.609375 C35.79745865 126.44418005 32.06445472 130.09938739 26 132 C24.68 132 23.36 132 22 132 C22.30904171 129.72869344 22.62234907 127.45796695 22.9375 125.1875 C23.11152344 123.92292969 23.28554688 122.65835938 23.46484375 121.35546875 C24 118 24 118 25 115 C25.78646485 102.79467056 25.2866936 89.75853943 17 80 C14.11403271 77.18678819 11.11710911 74.55344886 8 72 C7.7525 73.175625 7.505 74.35125 7.25 75.5625 C6.83674085 77.37577997 6.41960535 79.18817807 6 81 C5.76667969 82.05574219 5.53335938 83.11148438 5.29296875 84.19921875 C3.64043843 91.05835143 1.53894903 97.15176506 -1.49902344 103.53222656 C-8.15082018 117.65106757 -9.90786288 131.55797923 -4.5546875 146.5625 C-2.08276601 152.02805506 0.71504243 157.32196453 3.64599609 162.55493164 C4.07734863 163.33215576 4.50870117 164.10937988 4.953125 164.91015625 C5.34661133 165.60246338 5.74009766 166.29477051 6.14550781 167.00805664 C7 169 7 169 7 173 C-12.10290089 161.47761534 -31.05946065 144.08963015 -37.54418945 122.15966797 C-40.10371249 110.03243668 -39.00249018 95.24491382 -34 84 C-33.62125732 83.1035376 -33.62125732 83.1035376 -33.23486328 82.18896484 C-28.8715234 71.99233814 -22.92599021 63.58613614 -16.06640625 54.921875 C-2.33300791 37.54885386 -0.73839329 21.55448059 0 0 Z " fill="#FDFBF9" transform="translate(338,135)"/>
<path d="M0 0 C4.60428934 1.31551124 8.18320388 3.09196486 12 6 C12 6.66 12 7.32 12 8 C12.56332031 8.25265625 13.12664062 8.5053125 13.70703125 8.765625 C16.32793444 10.17653711 18.40158222 11.84088185 20.6875 13.75 C21.64398438 14.5440625 22.60046875 15.338125 23.5859375 16.15625 C24.12057617 16.60226563 24.65521484 17.04828125 25.20605469 17.5078125 C27.97854716 19.81394668 30.7662837 22.10147608 33.55200195 24.39160156 C39.04893947 28.91073844 44.53817012 33.43847174 50 38 C48.47686262 48.36134246 46.32663421 60.73501165 38 68 C36.68 68 35.36 68 34 68 C33.89453857 67.45698242 33.78907715 66.91396484 33.68041992 66.35449219 C32.64695727 61.05428115 31.58807829 55.75980376 30.50390625 50.46972656 C30.09773905 48.479035 29.70326171 46.4859603 29.3125 44.4921875 C25.5669432 27.3094457 15.45878617 13.98216938 2 3 C1.34 2.67 0.68 2.34 0 2 C0 1.34 0 0.68 0 0 Z " fill="#C88E38" transform="translate(340,135)"/>
<path d="M0 0 C4.61513112 1.31860889 8.09897612 3.21355437 12 6 C11.67 7.32 11.34 8.64 11 10 C10.45730469 9.59007812 9.91460937 9.18015625 9.35546875 8.7578125 C8.64003906 8.21898437 7.92460937 7.68015625 7.1875 7.125 C6.47980469 6.59132812 5.77210938 6.05765625 5.04296875 5.5078125 C3.39543703 4.29185219 1.70375789 3.13583859 0 2 C0 1.34 0 0.68 0 0 Z " fill="#D29A46" transform="translate(340,135)"/>
</svg>
