<?xml version="1.0" encoding="UTF-8"?>
<svg version="1.1" xmlns="http://www.w3.org/2000/svg" width="833" height="833">
<path d="M0 0 C274.89 0 549.78 0 833 0 C833 274.89 833 549.78 833 833 C558.11 833 283.22 833 0 833 C0 558.11 0 283.22 0 0 Z " fill="#F9AF40" transform="translate(0,0)"/>
<path d="M0 0 C274.89 0 549.78 0 833 0 C833 274.89 833 549.78 833 833 C558.11 833 283.22 833 0 833 C0 558.11 0 283.22 0 0 Z M318.29003906 84.29882812 C316.20711264 84.93658555 314.11856149 85.54444288 312.0234375 86.140625 C270.77833903 98.26651316 232.05317361 119.64318088 199 147 C198.19175781 147.66394775 198.19175781 147.66394775 197.3671875 148.34130859 C181.97183321 161.02332289 166.75017277 174.61802804 154 190 C153.5560791 190.53012695 153.1121582 191.06025391 152.65478516 191.60644531 C139.35723144 207.52223705 127.47403773 224.09660765 117 242 C116.61392578 242.6511377 116.22785156 243.30227539 115.83007812 243.97314453 C104.92768631 262.40990158 96.17470232 281.83720291 89 302 C88.76087891 302.65838867 88.52175781 303.31677734 88.27539062 303.99511719 C78.56717338 330.82794637 73.86886947 358.71778726 71 387 C70.90356201 387.85956299 70.80712402 388.71912598 70.70776367 389.60473633 C63.23461866 460.91352657 82.47652047 538.83211464 121 599 C121.45552246 599.71623535 121.91104492 600.4324707 122.38037109 601.17041016 C140.81029743 629.9589897 163.54681411 658.13381436 190 680 C190.53399414 680.44778809 191.06798828 680.89557617 191.61816406 681.35693359 C219.53135941 704.72733472 250.5044814 723.73380238 284 738 C284.62825684 738.27505371 285.25651367 738.55010742 285.90380859 738.83349609 C315.71230213 751.87729025 347.89119999 758.0801148 380 762 C381.19222168 762.176521 382.38444336 762.35304199 383.61279297 762.53491211 C389.19447583 763.22849718 394.78904919 763.18200319 400.40625 763.203125 C401.60318481 763.20882507 402.80011963 763.21452515 404.0333252 763.22039795 C406.5682691 763.22982199 409.10322511 763.23637158 411.63818359 763.24023438 C415.43219886 763.24982855 419.22564546 763.28083068 423.01953125 763.3125 C438.58753863 763.3798185 453.61634936 762.35556332 469 760 C470.94092211 759.7168366 472.88192123 759.43420056 474.82299805 759.15209961 C534.27595881 750.33962222 592.34431991 722.75034228 638 684 C638.99128906 683.19304688 639.98257813 682.38609375 641.00390625 681.5546875 C648.8467151 675.10187805 656.11684439 668.09658264 663.3125 660.9375 C664.23135986 660.02782471 665.15021973 659.11814941 666.09692383 658.1809082 C672.15739485 652.09307614 677.64361968 645.70958545 683 639 C683.8635968 637.97262523 684.73200816 636.94923433 685.609375 635.93359375 C712.3147598 604.79355563 732.36634239 567.08530393 745.24755859 528.23681641 C745.91384383 526.25612031 746.62005038 524.28895188 747.33203125 522.32421875 C777.37748902 438.1015546 764.97182027 341.56767478 727.52539062 262.17724609 C717.13092306 240.52654172 703.29425467 219.51547612 688 201 C687.35804688 200.21810303 687.35804688 200.21810303 686.703125 199.42041016 C673.11500795 182.91846197 658.5373393 166.34011069 641.671875 153.1171875 C639.2585987 151.204913 636.94167602 149.21216263 634.62988281 147.17944336 C619.21123306 133.73255552 601.78184993 123.00498054 584 113 C582.81204834 112.32759277 582.81204834 112.32759277 581.60009766 111.64160156 C547.29420807 92.39416893 509.13856914 80.29336462 470.375 74.1875 C469.70940063 74.08199829 469.04380127 73.97649658 468.35803223 73.86779785 C451.3544107 71.20785458 434.60984738 70.75959722 417.4375 70.75 C416.35040741 70.74932526 415.26331482 70.74865051 414.14328003 70.74795532 C381.36337264 70.7802027 349.70987907 74.60212399 318.29003906 84.29882812 Z " fill="#FEFEFE" transform="translate(0,0)"/>
<path d="M0 0 C0.99 0.495 0.99 0.495 2 1 C2 1.66 2 2.32 2 3 C3.0828125 3.3403125 3.0828125 3.3403125 4.1875 3.6875 C7.5490428 5.25621997 9.42088997 7.35641222 12 10 C13.65948148 11.01187895 15.32580562 12.0126546 17 13 C18.35308313 14.31328657 19.68870078 15.64499081 21 17 C21.99 17.66 22.98 18.32 24 19 C24 19.66 24 20.32 24 21 C24.804375 21.268125 25.60875 21.53625 26.4375 21.8125 C27.283125 22.204375 28.12875 22.59625 29 23 C29.495 24.485 29.495 24.485 30 26 C30.99 26 31.98 26 33 26 C33 26.66 33 27.32 33 28 C34.0828125 28.3403125 34.0828125 28.3403125 35.1875 28.6875 C38.5490428 30.25621997 40.42088997 32.35641222 43 35 C44.65948148 36.01187895 46.32580562 37.0126546 48 38 C49.35308313 39.31328657 50.68870078 40.64499081 52 42 C53.485 42.99 53.485 42.99 55 44 C55 44.66 55 45.32 55 46 C55.804375 46.268125 56.60875 46.53625 57.4375 46.8125 C58.283125 47.204375 59.12875 47.59625 60 48 C60.33 48.99 60.66 49.98 61 51 C62.0209375 51.37125 62.0209375 51.37125 63.0625 51.75 C66.75481072 53.32119605 69.13151523 55.64737475 72.078125 58.328125 C74.23541864 60.20479508 76.53519189 61.56219527 79 63 C79.6084375 63.61230469 80.216875 64.22460938 80.84375 64.85546875 C83.71706312 67.71316604 86.91776306 70.01021852 90.171875 72.4140625 C90.77515625 72.93742187 91.3784375 73.46078125 92 74 C92 74.66 92 75.32 92 76 C92.804375 76.268125 93.60875 76.53625 94.4375 76.8125 C95.283125 77.204375 96.12875 77.59625 97 78 C97.33 78.99 97.66 79.98 98 81 C98.99 81 99.98 81 101 81 C101 81.66 101 82.32 101 83 C101.57363281 83.26425781 102.14726563 83.52851563 102.73828125 83.80078125 C105.12222149 85.06480483 107.0774052 86.50787991 109.1875 88.1875 C111.6368186 90.13230779 114.08650497 92.06507474 116.5859375 93.9453125 C117.40320313 94.56148438 118.22046875 95.17765625 119.0625 95.8125 C119.81660156 96.37582031 120.57070313 96.93914062 121.34765625 97.51953125 C121.89292969 98.00808594 122.43820312 98.49664062 123 99 C123 99.66 123 100.32 123 101 C123.804375 101.268125 124.60875 101.53625 125.4375 101.8125 C126.283125 102.204375 127.12875 102.59625 128 103 C128.33 103.99 128.66 104.98 129 106 C129.99 106 130.98 106 132 106 C132 106.66 132 107.32 132 108 C132.56203125 108.2578125 133.1240625 108.515625 133.703125 108.78125 C136.26704579 110.14169777 138.45226365 111.72788962 140.75 113.5 C141.54921875 114.1084375 142.3484375 114.716875 143.171875 115.34375 C143.77515625 115.8903125 144.3784375 116.436875 145 117 C145 117.66 145 118.32 145 119 C145.7425 119.268125 146.485 119.53625 147.25 119.8125 C149.89061949 120.95276751 151.85552844 122.09380306 154 124 C154 124.66 154 125.32 154 126 C154.804375 126.268125 155.60875 126.53625 156.4375 126.8125 C157.283125 127.204375 158.12875 127.59625 159 128 C159.33 128.99 159.66 129.98 160 131 C161.79932579 132.06716704 161.79932579 132.06716704 164 133 C167.57155458 134.96435502 170.17288807 137.078651 173 140 C173.99 140.66 174.98 141.32 176 142 C176 142.66 176 143.32 176 144 C176.680625 144.20625 177.36125 144.4125 178.0625 144.625 C181.37547866 146.17575597 183.6578015 148.12470724 186.3515625 150.5625 C188.14959934 152.19274687 188.14959934 152.19274687 191 154 C191 154.66 191 155.32 191 156 C191.86044922 156.39638672 191.86044922 156.39638672 192.73828125 156.80078125 C195.12222149 158.06480483 197.0774052 159.50787991 199.1875 161.1875 C201.6368186 163.13230779 204.08650497 165.06507474 206.5859375 166.9453125 C207.40320313 167.56148437 208.22046875 168.17765625 209.0625 168.8125 C209.81660156 169.37582031 210.57070313 169.93914062 211.34765625 170.51953125 C212.16556641 171.25236328 212.16556641 171.25236328 213 172 C213 172.66 213 173.32 213 174 C213.7425 174.268125 214.485 174.53625 215.25 174.8125 C217.89061949 175.95276751 219.85552844 177.09380306 222 179 C222 179.66 222 180.32 222 181 C222.57492187 181.26554688 223.14984375 181.53109375 223.7421875 181.8046875 C226.09996912 183.05292483 228.03610983 184.46776241 230.125 186.125 C230.90617187 186.74246094 231.68734375 187.35992187 232.4921875 187.99609375 C233.73355469 188.98802734 233.73355469 188.98802734 235 190 C236.30324219 191.03833984 236.30324219 191.03833984 237.6328125 192.09765625 C240.09175339 194.0611389 242.54642062 196.02982451 245 198 C245.92296875 198.69738281 246.8459375 199.39476562 247.796875 200.11328125 C248.52390625 200.73589844 249.2509375 201.35851562 250 202 C250 202.66 250 203.32 250 204 C250.99 204 251.98 204 253 204 C253 204.66 253 205.32 253 206 C253.99 206.33 254.98 206.66 256 207 C256.20402459 215.61001215 255.74961341 223.81285107 254.375 232.3125 C254.19678711 233.43060059 254.01857422 234.54870117 253.83496094 235.70068359 C244.99373001 288.81538816 221.19498531 341.6081622 184 381 C182.95380771 382.22531703 181.91209828 383.45447636 180.875 384.6875 C171.82033197 395.04772482 161.86081836 404.56456102 151 413 C149.94629032 413.85346472 148.89428669 414.7090389 147.84375 415.56640625 C133.25654547 427.38784111 117.58286663 437.23601761 101 446 C100.3488623 446.3501416 99.69772461 446.7002832 99.02685547 447.06103516 C84.22831444 454.98923124 68.48058324 461.20474014 52.4375 466.125 C51.765979 466.33729248 51.09445801 466.54958496 50.40258789 466.76831055 C46.23205507 467.97583708 43.14926185 468.34451513 39 467 C36.664745 465.27168008 34.61756399 463.58484407 32.5 461.625 C31.25870499 460.51836679 30.01515638 459.41425696 28.76953125 458.3125 C28.14127441 457.75433594 27.51301758 457.19617188 26.86572266 456.62109375 C24.0561356 454.17989275 21.13314147 451.89863523 18.1875 449.625 C12.87946012 445.50871426 7.67180142 441.28615145 2.5 437 C-2.61466225 432.76342819 -7.75918463 428.57955862 -13 424.5 C-18.51881604 420.1982119 -23.96276169 415.81015369 -29.375 411.375 C-30.51001953 410.44977539 -30.51001953 410.44977539 -31.66796875 409.50585938 C-32.36277344 408.93416016 -33.05757813 408.36246094 -33.7734375 407.7734375 C-34.39653809 407.26216309 -35.01963867 406.75088867 -35.66162109 406.22412109 C-36.10328613 405.82016113 -36.54495117 405.41620117 -37 405 C-37 404.67 -37 404.34 -37 404 C-36.41992188 403.90203125 -35.83984375 403.8040625 -35.2421875 403.703125 C-30.03972102 402.70727333 -26.07323154 401.58832302 -22 398 C-19.10243979 392.44345502 -18.26548739 387.25740522 -17.60546875 381.07104492 C-17.4928067 380.09741501 -17.38014465 379.1237851 -17.2640686 378.12065125 C-16.89494019 374.90833377 -16.54118432 371.69452021 -16.1875 368.48046875 C-15.93088388 366.22094573 -15.67329869 363.96153257 -15.41479492 361.70222473 C-14.73567122 355.74400049 -14.06951474 349.78439599 -13.40612793 343.82440186 C-12.7392846 337.85277674 -12.06067069 331.88249242 -11.3828125 325.91210938 C-10.49721588 318.10367657 -9.61549439 310.29483533 -8.74134827 302.48511219 C-7.63602379 292.61269995 -6.51934843 282.74163359 -5.38671875 272.87231445 C-5.26287308 271.78756175 -5.1390274 270.70280905 -5.01142883 269.58518505 C-4.68173072 266.72251715 -4.34213692 263.86120251 -4 261 C-3.87763977 259.88962152 -3.87763977 259.88962152 -3.75280762 258.75681114 C-3.19821906 254.15733082 -3.19821906 254.15733082 -1.2578125 252.6171875 C-0.55398438 252.37226563 0.14984375 252.12734375 0.875 251.875 C3.7320256 250.66153214 4.91629921 250.09677904 7 247.6875 C8.78213512 242.89801187 8.21932035 238.8772814 7 234 C4.03 234 1.06 234 -2 234 C-1.72625073 231.31725712 -1.38446925 228.6686689 -1 226 C-0.82726562 224.75734375 -0.65453125 223.5146875 -0.4765625 222.234375 C-0.25768943 220.88501188 -0.03631336 219.53605249 0.1875 218.1875 C0.38730469 216.90230469 0.58710938 215.61710938 0.79296875 214.29296875 C2 211 2 211 4.99609375 209.19140625 C5.98738281 208.79824219 6.97867188 208.40507812 8 208 C11.24708889 204.10349334 11.29216602 200.96682232 11 196 C11.60328125 195.84144531 12.2065625 195.68289063 12.828125 195.51953125 C18.02504653 194.00236545 21.04260981 192.80575906 24 188 C25.23004981 185.53990037 25.13314027 183.86827194 25.125 181.125 C25.12757813 180.26132812 25.13015625 179.39765625 25.1328125 178.5078125 C25.01023921 176.19334029 24.64966445 174.21710884 24 172 C22.02 172 20.04 172 18 172 C18.33 171.34 18.66 170.68 19 170 C19.66 170 20.32 170 21 170 C22.80679587 165.37630977 23.21839082 161.57471347 23.125 156.625 C23.10695313 155.37976563 23.08890625 154.13453125 23.0703125 152.8515625 C23.04710937 151.91054688 23.02390625 150.96953125 23 150 C22.36710052 150.02442673 21.73420105 150.04885345 21.0821228 150.07402039 C14.43045158 150.3194199 7.78008544 150.48409649 1.125 150.60424805 C-1.35046699 150.6592047 -3.82558295 150.73400145 -6.29980469 150.82983398 C-30.76004653 151.75276886 -30.76004653 151.75276886 -40.07583618 143.29008484 C-44.39986319 138.95232019 -48.0280191 134.3422274 -51 129 C-51.32693848 128.42121094 -51.65387695 127.84242188 -51.99072266 127.24609375 C-59.31533919 114.10159535 -66.20532258 98.35026042 -63 83 C-61.17170572 77.42805552 -58.57895433 72.18835204 -55.96582031 66.95019531 C-50.69904461 56.31546216 -48.96790552 45.74222217 -48 34 C-39.55682465 38.04568819 -33.91075168 44.23251542 -30 52.75 C-25.5298384 65.61681651 -26.80607027 81.20090876 -31 94 C-31.33 94.66 -31.66 95.32 -32 96 C-23.31158932 92.94921502 -17.18315443 90.13894068 -12.8515625 81.78515625 C-12.43003906 80.90150391 -12.43003906 80.90150391 -12 80 C-11.67 80 -11.34 80 -11 80 C-10.94436513 81.91631208 -10.90649771 83.83313925 -10.875 85.75 C-10.85179687 86.81734375 -10.82859375 87.8846875 -10.8046875 88.984375 C-11.0489948 98.79803121 -13.69562992 107.85705049 -17.0625 117 C-17.78390742 118.99951153 -18.50401455 120.99949279 -19.22265625 123 C-19.69844116 124.299375 -19.69844116 124.299375 -20.18383789 125.625 C-20.90992388 127.73788198 -21.4985943 129.82440917 -22 132 C-4.13674952 118.50332186 8.25113555 95.19966778 11.61621094 73.31982422 C14.27350861 50.33386128 12.94718771 26.0220133 1.35546875 5.58203125 C0 3 0 3 0 0 Z " fill="#C68B32" transform="translate(450,229)"/>
<path d="M0 0 C1.02746338 -0.00340393 2.05492676 -0.00680786 3.11352539 -0.01031494 C22.19801668 -0.04647423 41.1126261 1.09705795 59.9375 4.375 C61.13238037 4.5827002 62.32726074 4.79040039 63.55834961 5.00439453 C78.34134586 7.72629447 92.71304314 11.8808147 107.0625 16.3125 C108.50592773 16.75698486 108.50592773 16.75698486 109.97851562 17.21044922 C151.2184556 30.16958137 189.09218568 52.61743597 222.0625 80.3125 C223.06796875 81.13234375 224.0734375 81.9521875 225.109375 82.796875 C232.7491702 89.10076221 239.85222007 95.89291397 246.875 102.875 C247.74624512 103.73706055 248.61749023 104.59912109 249.51513672 105.48730469 C255.4540973 111.45450838 260.8057723 117.74274504 266.0625 124.3125 C266.93774702 125.35166202 267.81787615 126.38677566 268.70703125 127.4140625 C327.86943233 196.27696538 351.55773134 288.15579182 345.4375 377.4375 C343.54067942 400.66614259 339.00853098 424.0843808 332.0625 446.3125 C331.62599121 447.7368335 331.62599121 447.7368335 331.18066406 449.18994141 C312.31807447 510.21890191 274.51655388 571.50123248 223.6328125 611.296875 C220.88686275 613.45023377 218.26601529 615.71945755 215.625 618 C202.75176932 628.73326506 188.65231384 638.0847795 174.0625 646.3125 C172.84506104 647.00424316 172.84506104 647.00424316 171.60302734 647.70996094 C143.1558136 663.79951661 113.69444964 675.10850774 82.0625 683.3125 C80.84691406 683.62832031 79.63132812 683.94414063 78.37890625 684.26953125 C75.28311036 685.02234507 72.18691058 685.68833532 69.0625 686.3125 C68.28406738 686.4681543 67.50563477 686.62380859 66.70361328 686.78417969 C63.95060332 687.32754362 61.19479814 687.85385135 58.4375 688.375 C57.59743408 688.53766357 56.75736816 688.70032715 55.8918457 688.86791992 C37.411088 692.2539049 18.99896837 692.71511081 0.25 692.6875 C-1.01074341 692.68762085 -2.27148682 692.6877417 -3.57043457 692.68786621 C-22.40856136 692.66214659 -40.41334526 691.82623836 -58.9375 688.3125 C-60.78056856 688.00500193 -62.6243042 687.70146993 -64.46875 687.40234375 C-115.51757046 678.80226538 -166.45219181 656.75401934 -207.17041016 624.69433594 C-208.9037554 623.33888774 -210.65583583 622.01304677 -212.41796875 620.6953125 C-218.73034486 615.95851716 -224.69172575 610.96827362 -230.47265625 605.59375 C-232.50548921 603.71233249 -234.57069149 601.90949234 -236.6875 600.125 C-246.06048767 591.97457594 -255.05623105 582.91362213 -262.9375 573.3125 C-263.37707031 572.78672363 -263.81664062 572.26094727 -264.26953125 571.71923828 C-277.56390266 555.80979187 -289.51736408 539.24437177 -299.9375 521.3125 C-300.57316895 520.22267822 -300.57316895 520.22267822 -301.22167969 519.11083984 C-325.05242043 477.97945758 -338.84399264 433.34150221 -344.9375 386.3125 C-345.05754395 385.44286621 -345.17758789 384.57323242 -345.30126953 383.67724609 C-348.80691212 357.83162185 -348.29214341 330.13778475 -344.9375 304.3125 C-344.80859375 303.29897461 -344.6796875 302.28544922 -344.546875 301.24121094 C-335.52176487 232.40385477 -305.90097306 166.99641387 -259.03515625 115.62890625 C-257.23158387 113.63725183 -255.48643904 111.61228143 -253.75 109.5625 C-250.32541203 105.63382548 -246.6756901 101.94171146 -243 98.25 C-242.42677002 97.67217773 -241.85354004 97.09435547 -241.26293945 96.49902344 C-236.98607565 92.23726795 -232.52672805 88.23434483 -227.9375 84.3125 C-226.97106567 83.48600952 -226.97106567 83.48600952 -225.98510742 82.64282227 C-195.64852209 56.90211377 -161.86303575 37.06092176 -124.9375 22.3125 C-123.49863799 21.72280245 -122.05982788 21.13297823 -120.62109375 20.54296875 C-102.82679785 13.4066081 -84.04552993 8.99283165 -65.19921875 5.73339844 C-62.97873158 5.32017306 -60.79191333 4.82656312 -58.59375 4.30859375 C-39.4318806 -0.00282686 -19.53276097 0.01519627 0 0 Z M-43.9375 31.3125 C-45.58758057 31.53160034 -45.58758057 31.53160034 -47.27099609 31.75512695 C-121.63490039 42.33868412 -193.62548112 81.30003639 -241.9375 139.3125 C-242.38287109 139.83875977 -242.82824219 140.36501953 -243.28710938 140.90722656 C-291.49312133 197.9998578 -318.13566986 270.55837632 -318.1875 345.25 C-318.18817474 346.12833496 -318.18884949 347.00666992 -318.18954468 347.91162109 C-318.11826492 406.71541959 -301.61086005 465.57274685 -269.9375 515.3125 C-268.96296875 516.859375 -268.96296875 516.859375 -267.96875 518.4375 C-251.41055641 543.95340487 -230.50617827 568.95105546 -206.9375 588.3125 C-206.43589355 588.72790039 -205.93428711 589.14330078 -205.41748047 589.57128906 C-171.9788485 617.16990759 -133.60682394 638.92279591 -91.9375 651.3125 C-90.86000488 651.63444336 -90.86000488 651.63444336 -89.76074219 651.96289062 C-69.78629045 657.81640415 -49.32671856 661.23821495 -28.625 663.125 C-27.9416156 663.18834534 -27.2582312 663.25169067 -26.55413818 663.31695557 C2.87757278 665.98659313 34.11944559 664.29422551 63.0625 658.3125 C64.07103027 658.10641113 65.07956055 657.90032227 66.11865234 657.68798828 C113.27759212 647.79445266 158.49686122 626.46521332 196.0625 596.3125 C197.06539062 595.52230469 198.06828125 594.73210938 199.1015625 593.91796875 C216.17478428 580.26431156 232.70179669 564.63378703 246.0625 547.3125 C246.88363281 546.30832031 247.70476563 545.30414062 248.55078125 544.26953125 C261.15505324 528.80264897 271.8073957 511.96514075 281.0625 494.3125 C281.57538574 493.35029541 281.57538574 493.35029541 282.09863281 492.36865234 C297.2581384 463.82833682 307.39154898 433.08709765 313.0625 401.3125 C313.22766113 400.43996582 313.39282227 399.56743164 313.56298828 398.66845703 C316.54076933 382.16791084 317.44227887 365.61289646 317.375 348.875 C317.37326279 347.51942993 317.37326279 347.51942993 317.37149048 346.13647461 C317.33097185 330.02386312 316.30829246 314.28168853 314.0625 298.3125 C313.95035156 297.46478027 313.83820312 296.61706055 313.72265625 295.74365234 C306.25243767 240.09744078 280.6646004 187.29873974 245.0625 144.3125 C244.26328125 143.32765625 243.4640625 142.3428125 242.640625 141.328125 C236.3213678 133.66410045 229.5018014 126.54264266 222.5 119.5 C221.20703003 118.19325317 221.20703003 118.19325317 219.88793945 116.86010742 C213.92109367 110.92150038 207.64612234 105.55237057 201.0625 100.3125 C199.78456962 99.26401656 198.50828282 98.21352343 197.234375 97.16015625 C169.38061668 74.37832388 136.98090551 57.14774547 103.0625 45.3125 C102.26924316 45.03567383 101.47598633 44.75884766 100.65869141 44.47363281 C72.71978512 34.88102428 42.5070441 29.1789717 12.9375 29.14453125 C11.91052002 29.14120285 10.88354004 29.13787445 9.82543945 29.13444519 C7.664067 29.12941622 5.50268689 29.12703561 3.34130859 29.12719727 C0.09849652 29.12502412 -3.14396721 29.10686129 -6.38671875 29.08789062 C-19.03683123 29.05320348 -31.39997679 29.61046344 -43.9375 31.3125 Z " fill="#FAAF41" transform="translate(416.9375,70.6875)"/>
<path d="M0 0 C1.0940918 -0.00067474 2.18818359 -0.00134949 3.31542969 -0.00204468 C19.50789512 0.01381924 35.33151789 0.39567179 51.3125 3.25 C52.90239746 3.53133789 52.90239746 3.53133789 54.52441406 3.81835938 C61.822796 5.14222202 69.06928324 6.65482294 76.3125 8.25 C77.69136413 8.53666102 79.07026519 8.82314448 80.44921875 9.109375 C125.15826338 19.18197592 168.42645149 42.79821774 203.3125 72.25 C204.33214844 73.08402344 205.35179687 73.91804688 206.40234375 74.77734375 C220.11360496 86.10881329 233.51173104 98.70836212 244.41015625 112.80078125 C245.71936595 114.48635513 247.0858386 116.12847944 248.49609375 117.73046875 C296.38200716 172.22133573 318.50854721 247.05618878 318.5625 318.5 C318.56350708 319.42930328 318.56451416 320.35860657 318.56555176 321.31607056 C318.55467945 336.1924206 317.73686783 350.55113806 315.3125 365.25 C315.01843186 367.20947074 314.72547844 369.16910907 314.43359375 371.12890625 C312.40979462 384.17549165 309.25776789 396.66293354 305.3125 409.25 C305.0345459 410.16797363 304.7565918 411.08594727 304.47021484 412.03173828 C294.76567221 443.983849 280.00449377 474.2544029 260.3125 501.25 C259.55453125 502.301875 258.7965625 503.35375 258.015625 504.4375 C252.45706741 512.00659969 246.46327614 519.16196274 240.3125 526.25 C239.63058594 527.04535156 238.94867187 527.84070313 238.24609375 528.66015625 C227.29685589 541.15214387 215.45991748 553.08639358 202.3125 563.25 C201.15236514 564.19606034 199.99499923 565.1455224 198.83984375 566.09765625 C185.22042424 577.27860209 170.66556747 586.6293633 155.3125 595.25 C154.14170898 595.90935547 154.14170898 595.90935547 152.94726562 596.58203125 C98.46556166 626.95175217 34.94661009 639.78911871 -27.125 634.125 C-27.82938202 634.06131226 -28.53376404 633.99762451 -29.25949097 633.93200684 C-53.27673852 631.70259455 -76.76625997 626.80455019 -99.6875 619.25 C-100.91436523 618.846604 -100.91436523 618.846604 -102.16601562 618.43505859 C-136.46098853 606.9354112 -168.55221406 588.90590014 -196.6875 566.25 C-198.02554688 565.20005859 -198.02554688 565.20005859 -199.390625 564.12890625 C-207.56612458 557.61480205 -215.14838274 550.48028595 -222.6875 543.25 C-223.24679199 542.71407227 -223.80608398 542.17814453 -224.38232422 541.62597656 C-230.49475364 535.73363159 -236.21057595 529.66353859 -241.4921875 523 C-243.73904621 520.18542965 -246.08330788 517.47510985 -248.4375 514.75 C-279.94505723 476.90191268 -299.96143977 429.98852157 -310.6875 382.25 C-310.95175781 381.08984375 -311.21601563 379.9296875 -311.48828125 378.734375 C-327.85362399 299.84503049 -311.09245481 213.28280885 -267.17675781 145.93310547 C-258.02602106 132.05124312 -248.26120124 118.87532309 -236.94140625 106.6875 C-235.03107219 104.62155814 -233.1942003 102.52049421 -231.375 100.375 C-223.850936 91.72767526 -215.52034375 83.5512227 -206.6875 76.25 C-206.15350586 75.80221191 -205.61951172 75.35442383 -205.06933594 74.89306641 C-146.84127982 26.14146304 -75.94941743 0.04207052 0 0 Z M-44.6875 30.25 C-46.10268391 30.48157555 -47.51804026 30.7121006 -48.93359375 30.94140625 C-52.87401648 31.60640371 -56.78152505 32.40802091 -60.6875 33.25 C-61.46061523 33.41193848 -62.23373047 33.57387695 -63.03027344 33.74072266 C-101.0622232 41.8074288 -137.37996416 58.20514344 -168.6875 81.25 C-169.53248047 81.8697168 -169.53248047 81.8697168 -170.39453125 82.50195312 C-174.227589 85.33410704 -177.9766654 88.25989295 -181.6875 91.25 C-182.20924805 91.66733398 -182.73099609 92.08466797 -183.26855469 92.51464844 C-191.47399142 99.13614014 -199.02286634 106.38452352 -206.5 113.8125 C-207.80710938 115.10571167 -207.80710938 115.10571167 -209.140625 116.42504883 C-215.07698352 122.39020817 -220.46937846 128.65089865 -225.6875 135.25 C-226.41972778 136.1627771 -226.41972778 136.1627771 -227.16674805 137.09399414 C-268.08281139 188.30981341 -289.10828578 251.22563303 -289.0625 316.4375 C-289.06413147 317.52987976 -289.06576294 318.62225952 -289.06744385 319.7477417 C-289.06519799 333.05047991 -288.53854736 346.07238548 -286.6875 359.25 C-286.5416748 360.30807861 -286.39584961 361.36615723 -286.24560547 362.45629883 C-276.02081086 432.12242861 -237.04465367 501.46979699 -180.6875 544.25 C-179.71296875 545.02988281 -178.7384375 545.80976562 -177.734375 546.61328125 C-169.12944596 553.4679414 -160.03106438 559.45473056 -150.6875 565.25 C-149.99108398 565.68344727 -149.29466797 566.11689453 -148.57714844 566.56347656 C-119.71887421 584.39207783 -88.20237587 595.96859183 -55 602.5 C-53.75412109 602.74645264 -52.50824219 602.99290527 -51.22460938 603.24682617 C-34.00893838 606.50119994 -17.13315241 607.62809983 0.375 607.5625 C1.3615155 607.56100952 2.34803101 607.55951904 3.36444092 607.5579834 C18.52833268 607.5168614 33.35766308 606.98075894 48.3125 604.25 C49.16295898 604.0948291 50.01341797 603.9396582 50.88964844 603.77978516 C55.66913152 602.87846395 60.41118605 601.85752622 65.14648438 600.74853516 C67.24368604 600.26583838 69.34550655 599.82137746 71.453125 599.38671875 C93.82303893 594.64311641 115.09489944 585.77374667 135.3125 575.25 C136.08658203 574.85039063 136.86066406 574.45078125 137.65820312 574.0390625 C162.33978326 561.21021859 184.30915566 544.51815251 204.3125 525.25 C205.14225342 524.45311768 205.14225342 524.45311768 205.98876953 523.64013672 C213.30996283 516.57089157 220.0696288 509.30598231 226.3125 501.25 C227.33065501 499.96087892 228.34888973 498.67182081 229.3671875 497.3828125 C244.65559041 477.87378252 257.24931508 456.89840874 267.3125 434.25 C268.04533203 432.66638672 268.04533203 432.66638672 268.79296875 431.05078125 C298.52117519 364.97924468 299.25584136 284.86438733 274.12890625 217.2890625 C260.51203374 181.71982039 241.30804504 149.92837165 215.6328125 121.79296875 C214.01082348 120.01533432 212.40249545 118.22518179 210.8046875 116.42578125 C206.53387556 111.63907612 202.25927977 107.09819016 197.34375 102.97265625 C195.09947288 101.06933661 192.96548903 99.06836812 190.8125 97.0625 C184.02927503 90.95448119 176.7172682 85.57330153 169.3125 80.25 C168.72404297 79.82605957 168.13558594 79.40211914 167.52929688 78.96533203 C148.59384605 65.48116053 127.82899411 54.92007798 106.3125 46.25 C105.58804687 45.95158203 104.86359375 45.65316406 104.1171875 45.34570312 C86.10498089 37.9565257 67.26569242 33.62235281 48.06396484 30.68798828 C45.53740959 30.28580193 43.03147916 29.82365337 40.51953125 29.33984375 C13.23022915 24.44325266 -17.45431287 25.36700615 -44.6875 30.25 Z " fill="#FEFEFD" transform="translate(415.6875,99.75)"/>
<path d="M0 0 C37.95 0 75.9 0 115 0 C116.92809904 5.78429711 116.77786652 11.94926099 114.625 17.625 C113 20 113 20 111 21 C112.175625 21.12375 112.175625 21.12375 113.375 21.25 C116 22 116 22 117.140625 23.7421875 C118.67618803 27.77653038 118.53715909 31.7564432 118 36 C115.64806505 40.88478796 112.69223213 43.36061943 108 46 C106.67543299 46.36662123 105.34292204 46.70768292 104 47 C103.99742187 47.59167969 103.99484375 48.18335938 103.9921875 48.79296875 C103.68361558 55.09812161 103.68361558 55.09812161 101.703125 57.7109375 C99.06249026 59.97247121 97.5198954 61 94 61 C93.896875 62.19625 93.79375 63.3925 93.6875 64.625 C92.9741815 71.18123621 91.45310124 77.57528192 90 84 C92.97 84 95.94 84 99 84 C101.16444699 88.32889398 101.49091079 90.254529 101 95 C99.4375 98.25 99.4375 98.25 97 101 C95.83101669 101.33280975 94.66203339 101.66561951 93.45762634 102.0085144 C89.91734193 103.56517705 89.91734193 103.56517705 89.19651985 106.08108902 C88.7143954 108.92869264 88.4473793 111.73289125 88.24047852 114.61376953 C88.13616044 115.68341005 88.03184237 116.75305058 87.92436314 117.85510445 C87.70464769 120.1110242 87.4975866 122.36820777 87.30238724 124.62638092 C86.92499665 128.83678381 86.44194488 133.03054265 85.94927883 137.22875786 C85.58221923 140.35933245 85.22995729 143.49126052 84.88182068 146.62399292 C84.38087082 151.12775935 83.87792289 155.63129059 83.37245178 160.134552 C82.28237179 169.84792569 81.19484221 179.56157991 80.11303711 189.27587891 C79.44543704 195.26915827 78.7736161 201.26195203 78.099123 207.25445938 C77.84517905 209.51795905 77.5928144 211.78163653 77.3421154 214.04549789 C76.99238818 217.20250408 76.63728159 220.35886378 76.28100586 223.51513672 C76.18070068 224.43265717 76.08039551 225.35017761 75.97705078 226.29550171 C73.69900257 246.25950044 73.69900257 246.25950044 67.4296875 251.25 C63.26755862 253.93765273 60.00381903 254.61450409 55 254 C49.4787052 252.65081142 46.13294911 250.94041975 43 246 C41.16650412 242.82994337 40.5975051 240.14131204 40.19003296 236.51016235 C40.06107132 235.39425217 39.93210968 234.27834198 39.79924011 233.12861633 C39.66616959 231.90877548 39.53309906 230.68893463 39.39599609 229.43212891 C39.24940048 228.14395767 39.10280487 226.85578644 38.95176697 225.52857971 C38.55028049 221.99829421 38.15833918 218.46700785 37.76827574 214.93544436 C37.35830564 211.23677569 36.94018281 207.53902828 36.52310181 203.84115601 C35.82369743 197.62937582 35.13015079 191.41696399 34.44042969 185.20410156 C33.64373053 178.02794683 32.83944248 170.85267614 32.03069055 163.67787039 C31.16897681 156.03280699 30.31236515 148.38717854 29.45748949 140.74134779 C29.21125329 138.54188321 28.96412062 136.34252085 28.71680832 134.14317703 C28.25554495 130.03811722 27.80005002 125.93243716 27.34521484 121.82666016 C27.20809586 120.61086777 27.07097687 119.39507538 26.92970276 118.1424408 C26.80638077 117.02089096 26.68305878 115.89934113 26.55599976 114.74380493 C26.44798223 113.77374323 26.33996471 112.80368153 26.22867393 111.80422401 C25.98837325 108.85742144 25.96111516 105.95526293 26 103 C24.9275 102.938125 23.855 102.87625 22.75 102.8125 C19 102 19 102 16.625 100 C14.51599036 96.10644374 13.76222386 92.43056214 14 88 C14.66 86.68 15.32 85.36 16 84 C18.97 84 21.94 84 25 84 C24.87882812 83.37432129 24.75765625 82.74864258 24.6328125 82.10400391 C24.08663003 79.27803481 23.54328076 76.4515283 23 73.625 C22.80921875 72.64015625 22.6184375 71.6553125 22.421875 70.640625 C22.24140625 69.69960938 22.0609375 68.75859375 21.875 67.7890625 C21.70742188 66.91975098 21.53984375 66.05043945 21.3671875 65.15478516 C21 63 21 63 21 61 C19.88625 60.9071875 19.88625 60.9071875 18.75 60.8125 C14.9601264 59.69276462 13.93389305 58.43803208 12 55 C11.68002696 51.96787448 11.76189083 49.03589188 12 46 C10.948125 45.9175 9.89625 45.835 8.8125 45.75 C4.60035591 44.92138149 2.96474106 44.04709497 0 41 C-3.18905893 36.16142783 -3.53580592 32.6259622 -3 27 C-1.75 24.0625 -1.75 24.0625 0 22 C2.1875 21.1875 2.1875 21.1875 4 21 C3.360625 20.2575 2.72125 19.515 2.0625 18.75 C-0.76538176 14.97949099 -1.14070269 12.07764402 -1.125 7.4375 C-1.12757813 6.67308594 -1.13015625 5.90867187 -1.1328125 5.12109375 C-1 3 -1 3 0 0 Z " fill="#FEFEFD" transform="translate(358,379)"/>
<path d="M0 0 C14.97998528 7.75502473 25.36179702 20.31854853 31.1953125 36.21875 C34.19649297 46.59176212 35.46562246 57.23874205 36 68 C41.986663 65.26323977 44.69540279 60.44514991 46.95556641 54.4765625 C47.80464954 51.83170042 48.57488564 49.17798776 49.3125 46.5 C49.57611328 45.5821875 49.83972656 44.664375 50.11132812 43.71875 C50.75204361 41.48207049 51.38129449 39.24284754 52 37 C62.89114456 46.98815626 66.43862568 64.40125275 67.1953125 78.6875 C67.33495301 82.77070604 67.37172332 86.85214524 67.375 90.9375 C67.37677246 92.24066162 67.37854492 93.54382324 67.38037109 94.88647461 C67.0996121 119.07648473 58.80999646 139.76478078 43 158 C42.30519531 158.82757813 41.61039062 159.65515625 40.89453125 160.5078125 C37.49413643 164.47600308 34.61947987 167.45489796 30 170 C31.5162801 165.36332003 33.07528267 160.74865102 34.75390625 156.16796875 C39.59764367 142.89673385 42.45453078 131.2419644 42 117 C41.46375 118.051875 40.9275 119.10375 40.375 120.1875 C36.77197319 126.44538866 31.62797802 129.62393241 25 132 C24.01 132 23.02 132 22 132 C22.32484375 130.74123047 22.32484375 130.74123047 22.65625 129.45703125 C26.1739679 114.26244422 28.1514595 97.00904095 20 83 C16.35567323 77.74538931 12.37607472 74.45550795 7 71 C6.90203125 72.09957031 6.8040625 73.19914062 6.703125 74.33203125 C5.2563256 89.19797944 0.26728085 100.93374546 -6.21557617 114.2734375 C-10.68799514 124.11749195 -8.1347985 137.2446331 -4.75390625 147.03808594 C-1.49481302 155.51932726 2.84582484 163.53334893 8 171 C7.67 171.66 7.34 172.32 7 173 C-12.66231565 158.70240245 -32.05272182 143.81894442 -38 119 C-40.58783185 95.50758803 -32.40377194 76.20636774 -18 58 C-16.66225605 56.29471127 -15.32827991 54.58666974 -13.99902344 52.87475586 C-12.75949648 51.28012242 -11.51087956 49.69256678 -10.26171875 48.10546875 C0.34285499 33.54478459 -0.3669949 17.34608488 0 0 Z " fill="#FEFDFC" transform="translate(396,193)"/>
<path d="M0 0 C4.2078259 1.44356071 7.25481271 3.51542342 10.75 6.25 C11.30510254 6.68328613 11.86020508 7.11657227 12.43212891 7.56298828 C17.86910848 11.83586023 23.19738133 16.24258048 28.5222168 20.65380859 C35.61084036 26.52496648 42.79446191 32.27332781 50 38 C48.29744651 48.32733101 45.74902682 61.15293553 37 68 C36.01 68 35.02 68 34 68 C33.93530518 67.44763672 33.87061035 66.89527344 33.80395508 66.32617188 C30.79893619 41.41933722 24.95854645 20.75578976 4.4375 4.4375 C3.59058594 3.79683594 2.74367188 3.15617188 1.87109375 2.49609375 C1.25363281 2.00238281 0.63617188 1.50867188 0 1 C0 0.67 0 0.34 0 0 Z " fill="#C78D35" transform="translate(398,193)"/>
<path d="M0 0 C4.67105792 1.55701931 8.08705685 4.08447373 12 7 C11.34 7.66 10.68 8.32 10 9 C8.33043913 7.69118353 6.66441696 6.37785174 5 5.0625 C4.071875 4.33160156 3.14375 3.60070312 2.1875 2.84765625 C1.465625 2.23792969 0.74375 1.62820312 0 1 C0 0.67 0 0.34 0 0 Z " fill="#D09844" transform="translate(398,193)"/>
</svg>
